<?xml version="1.0" encoding="UTF-8"?>
<svg width="24px" height="24px" viewBox="0 0 24 24" version="1.1" xmlns="http://www.w3.org/2000/svg" xmlns:xlink="http://www.w3.org/1999/xlink">
    <title>Icon/File/Doc</title>
    <g id="Icon/File/Doc" stroke="none" stroke-width="1" fill="none" fill-rule="evenodd">
        <path d="M15.414,2 L6,2 C4.897,2 4,2.898 4,4 L4,20 C4,21.104 4.897,22 6,22 L18,22 C19.104,22 20,21.104 20,20 L20,6.586 L15.414,2 Z M14.261,20 L12.389,20 L11.259,14.528 L10.929,12.718 L10.599,14.528 L9.469,20 L7.653,20 L5,10.644 L7.075,10.644 L8.31,16.002 L8.58,17.492 L8.85,16.032 L9.907,10.643 L11.97,10.643 L13.081,16 L13.366,17.491 L13.654,16.057 L14.902,10.642 L16.892,10.642 L14.261,20 Z M14,8 L14,3 L19,8 L14,8 Z" id="形状" fill="#0095D7"></path>
    </g>
</svg>