<?xml version="1.0" encoding="UTF-8"?>
<svg width="24px" height="24px" viewBox="0 0 24 24" version="1.1" xmlns="http://www.w3.org/2000/svg" xmlns:xlink="http://www.w3.org/1999/xlink">
    <title>Icon/File/Excel</title>
    <g id="Icon/File/Excel" stroke="none" stroke-width="1" fill="none" fill-rule="evenodd">
        <path d="M15.414,2 L6,2 C4.897,2 4,2.898 4,4 L4,20 C4,21.104 4.897,22 6,22 L18,22 C19.104,22 20,21.104 20,20 L20,6.586 L15.414,2 Z M11.954,20 L10.176,16.81 L8.298,20 L6.025,20 L9.034,15.232 L6.171,10.643 L8.507,10.643 L10.176,13.69 L11.891,10.643 L14.151,10.643 L11.288,15.156 L14.328,20 L11.954,20 Z M14,8 L14,3 L19,8 L14,8 Z" id="形状" fill="#00B755"></path>
    </g>
</svg>