<?xml version="1.0" encoding="UTF-8"?>
<svg width="24px" height="24px" viewBox="0 0 24 24" version="1.1" xmlns="http://www.w3.org/2000/svg" xmlns:xlink="http://www.w3.org/1999/xlink">
    <title>Icon/File/PDF</title>
    <g id="Icon/File/PDF" stroke="none" stroke-width="1" fill="none" fill-rule="evenodd">
        <path d="M12.874,15.861 C14.654,16.94 16.824,17.62 18.886,17.737 C19.096,17.75 19.55,17.72 20,17.628 L20,17.628 L20,20 C20,21.104 19.104,22 18,22 L18,22 L6,22 C5.862,22 5.728,21.986 5.597,21.959 C6.389,21.325 7.059,20.463 7.588,19.758 C8.227,18.902 8.728,17.995 9.129,17.048 C10.315,16.465 11.579,16.065 12.874,15.861 Z M7.648,17.928 C6.956,19.317 5.955,20.631 4.79,21.581 C4.649,21.475 4.525,21.35 4.418,21.21 C4.881,20.368 5.586,19.643 6.285,18.997 C6.713,18.604 7.171,18.254 7.648,17.928 Z M15.414,2 L19.999,6.586 L19.999,15.826 C19.612,15.673 19.198,15.563 18.844,15.462 C17.579,15.105 16.232,15.012 14.921,15.033 C14.472,15.039 14.019,15.078 13.566,15.134 C12.325,14.351 11.21,13.368 10.283,12.24 C10.388,10.258 9.945,8.152 9.085,6.411 C8.708,5.649 7.535,4.281 6.671,5.46 C5.789,6.664 7.058,9.16 7.589,10.246 C7.988,11.064 8.475,11.817 9.032,12.512 C8.966,13.729 8.731,14.946 8.364,16.15 C8.294,16.382 8.212,16.614 8.123,16.848 C6.584,17.703 5.124,18.81 4.019,20.184 C4.013,20.122 4,20.062 4,20 L4,20 L4,4 C4,2.898 4.897,2 6,2 L6,2 L15.414,2 Z M14.575,15.711 C15.384,15.69 16.196,15.731 17,15.854 C17.926,15.994 18.993,16.231 19.761,16.796 C19.848,16.856 19.934,16.943 19.98,17.039 C19.984,17.047 19.991,17.056 20,17.06 C19.983,17.062 19.97,17.065 19.949,17.066 C19.399,17.149 18.808,17.045 18.269,16.953 C16.984,16.737 15.736,16.31 14.575,15.711 Z M10.106,13.69 C10.729,14.304 11.408,14.864 12.134,15.378 C11.213,15.584 10.309,15.874 9.444,16.233 C9.732,15.408 9.95,14.563 10.106,13.69 Z M7.651,6.279 C8.132,6.962 8.392,7.869 8.61,8.629 C8.767,9.174 8.87,9.715 8.943,10.259 C8.36,9.191 7.932,8.041 7.716,6.847 C7.683,6.657 7.66,6.469 7.651,6.279 Z M14,3 L14,8 L19,8 L14,3 Z" id="形状结合" fill="#FF4944"></path>
    </g>
</svg>