<?xml version="1.0" encoding="UTF-8"?>
<svg width="24px" height="24px" viewBox="0 0 24 24" version="1.1" xmlns="http://www.w3.org/2000/svg" xmlns:xlink="http://www.w3.org/1999/xlink">
    <title>Icon/File/PPT</title>
    <g id="Icon/File/PPT" stroke="none" stroke-width="1" fill="none" fill-rule="evenodd">
        <path d="M15.414,2 L20,6.586 L20,20 C20,21.104 19.104,22 18,22 L18,22 L6,22 C4.897,22 4,21.104 4,20 L4,20 L4,4 C4,2.898 4.897,2 6,2 L6,2 L15.414,2 Z M10.864,10.644 L6.847,10.644 L6.847,20 L8.79,20 L8.79,16.636 L10.737,16.636 C11.754,16.636 12.536,16.407 13.084,15.95 C13.632,15.493 13.906,14.713 13.906,13.608 C13.906,12.597 13.631,11.851 13.08,11.368 C12.529,10.885 11.791,10.644 10.864,10.644 L10.864,10.644 Z M10.552,12.269 C10.997,12.269 11.345,12.372 11.592,12.581 C11.84,12.788 11.963,13.135 11.963,13.622 C11.963,14.108 11.84,14.463 11.592,14.688 C11.345,14.912 10.997,15.024 10.552,15.024 L10.552,15.024 L8.79,15.024 L8.79,12.269 Z M14,3 L14,8 L19,8 L14,3 Z" id="形状结合" fill="#ED8B00"></path>
    </g>
</svg>