<?xml version="1.0" encoding="UTF-8"?>
<svg width="16px" height="16px" viewBox="0 0 16 16" version="1.1" xmlns="http://www.w3.org/2000/svg" xmlns:xlink="http://www.w3.org/1999/xlink">
    <title>Icon/Add Copy 4</title>
    <g id="corev2" stroke="none" stroke-width="1" fill="none" fill-rule="evenodd">
        <g id="Flow-Pricer-General" transform="translate(-499.000000, -94.000000)">
            <g id="sub-header" transform="translate(13.000000, 88.000000)">
                <g id="Icon/Add-Copy-4" transform="translate(486.000000, 6.000000)">
                    <rect id="矩形" fill="#00BDF2" x="0" y="0" width="16" height="16" rx="2"></rect>
                    <path d="M13.6666667,1.33333333 C14.2189514,1.33333333 14.6666667,1.78104858 14.6666667,2.33333333 L14.6666667,13.6666667 C14.6666667,14.2189514 14.2189514,14.6666667 13.6666667,14.6666667 L2.33333333,14.6666667 C1.78104858,14.6666667 1.33333333,14.2189514 1.33333333,13.6666667 L1.33333333,2.33333333 C1.33333333,1.78104858 1.78104858,1.33333333 2.33333333,1.33333333 L13.6666667,1.33333333 Z M11.7446809,4 L7.57446809,9.33333333 L5.19148936,7.61904762 L4,9.14285714 L7.97163121,12 L13.3333333,5.14285714 L11.7446809,4 Z" id="形状结合" fill="#161A1D"></path>
                </g>
            </g>
        </g>
    </g>
</svg>