<?xml version="1.0" encoding="UTF-8"?>
<svg width="13px" height="14px" viewBox="0 0 13 14" version="1.1" xmlns="http://www.w3.org/2000/svg" xmlns:xlink="http://www.w3.org/1999/xlink">
    <title>Icon/Add Copy 5</title>
    <g id="corev2" stroke="none" stroke-width="1" fill="none" fill-rule="evenodd">
        <g id="Flow-Pricer-General" transform="translate(-587.000000, -95.000000)" fill="#B6BFC9">
            <g id="sub-header" transform="translate(13.000000, 88.000000)">
                <g id="Group-2" transform="translate(486.000000, 6.000000)">
                    <g id="Icon/Add-Copy-5" transform="translate(86.000000, 0.000000)">
                        <path d="M8,2.66666667 L8,4 L3.33333333,4 L3.33333333,13.3333333 L12.6666667,13.3333333 L12.6666667,7.33333333 L14,7.33333333 L14,13.3333333 C14,14.0686667 13.402,14.6666667 12.6666667,14.6666667 L3.33333333,14.6666667 C2.598,14.6666667 2,14.0686667 2,13.3333333 L2,4 C2,3.26533333 2.598,2.66666667 3.33333333,2.66666667 L8,2.66666667 Z M7.20506667,6.9098 L9.0904,8.79513333 L6.73373333,9.26646667 L7.20506667,6.9098 Z M12.3907333,1.72406667 C12.9114,1.2034 13.7554,1.2034 14.2760667,1.72406667 C14.7967333,2.24473333 14.7967333,3.08873333 14.2760667,3.6094 L14.2760667,3.6094 L10.0334,7.85206667 L8.14806667,5.96673333 Z" id="形状结合"></path>
                    </g>
                </g>
            </g>
        </g>
    </g>
</svg>