<?xml version="1.0" encoding="UTF-8"?>
<svg width="14px" height="16px" viewBox="0 0 14 16" version="1.1" xmlns="http://www.w3.org/2000/svg" xmlns:xlink="http://www.w3.org/1999/xlink">
    <title>Icon/Add Copy</title>
    <g id="corev2" stroke="none" stroke-width="1" fill="none" fill-rule="evenodd">
        <g id="Flow-Pricer-General" transform="translate(-307.000000, -94.000000)" fill="#00BDF2">
            <g id="sub-header" transform="translate(13.000000, 88.000000)">
                <g id="Icon/Add-Copy" transform="translate(291.000000, 4.000000)">
                    <path d="M14.9992857,10.9414286 L14.9992857,11.2828571 C14.9992857,14.3407143 13.0035714,16.375 9.99928571,16.375 C6.99642857,16.375 5,14.3407143 5,11.2828571 C5,8.22357143 6.99642857,6.19 9.99928571,6.19 L9.99928571,8.87214286 L15.5578571,5.03857143 L9.99928571,2.14285714 L9.99928571,4.735 C6.505,4.735 3.57142857,7.72285714 3.57142857,11.2828571 C3.57142857,14.8421429 6.505,17.83 9.99928571,17.83 C13.4957143,17.83 16.4285714,14.8421429 16.4285714,11.2828571 L16.4285714,10.9185714 L14.9992857,10.9414286 Z" id="refresh"></path>
                </g>
            </g>
        </g>
    </g>
</svg>