<?xml version="1.0" encoding="UTF-8"?>
<svg width="16px" height="13px" viewBox="0 0 16 13" version="1.1" xmlns="http://www.w3.org/2000/svg" xmlns:xlink="http://www.w3.org/1999/xlink">
    <title>Icon/Add Copy 2</title>
    <g id="corev2" stroke="none" stroke-width="1" fill="none" fill-rule="evenodd">
        <g id="Flow-Pricer-General" transform="translate(-331.000000, -96.000000)" fill="#00BDF2" fill-rule="nonzero">
            <g id="sub-header" transform="translate(13.000000, 88.000000)">
                <g id="Group" transform="translate(316.000000, 4.000000)">
                    <g id="Group" transform="translate(2.500000, 4.166667)">
                        <path d="M0.800797108,5.71090447 L3.43790134,5.71090447 L2.93959501,5.21259815 C2.73243395,5.01103604 2.73243395,4.67509921 2.93399606,4.46793815 C3.03477711,4.3671571 3.16915185,4.31116763 3.30912554,4.31116763 C3.44909924,4.31116763 3.57787502,4.3671571 3.67865606,4.46233921 L5.10638765,5.88447185 C5.15677818,5.93486238 5.19037185,5.9964508 5.2183666,6.05803922 C5.24636133,6.12522659 5.26315819,6.19241395 5.26315819,6.26520027 C5.26315819,6.40517395 5.20716871,6.53954869 5.10638765,6.63473079 L3.68985397,8.06806132 C3.58907292,8.16324343 3.46029712,8.21363396 3.32592239,8.21363396 C3.03477713,8.21363396 2.79962133,7.98407712 2.79962133,7.69293186 C2.79962133,7.55855712 2.85001186,7.42418238 2.94519396,7.32900028 L3.5050887,6.76910553 L0.800797108,6.76910553 C0.509651848,6.78030343 0.268897104,6.55074659 0.257699203,6.25960131 C0.246501302,5.96845605 0.476058144,5.72770131 0.76720342,5.71650343 C0.778401321,5.71650343 0.789599206,5.71650343 0.800797108,5.71090447 L0.800797108,5.71090447 Z M6.38294767,-2.18718998e-05 C6.35495294,-2.18718998e-05 6.32695819,-2.18718998e-05 6.29896345,0.00557707093 L0.677620257,0.00557707093 C0.296891834,0.0111760138 0.00574657428,0.274326544 0.00574657428,0.615862336 C0.00574657428,0.957398127 0.302490792,1.22054866 0.683219215,1.22054866 L5.85104767,1.22054866 L5.85664661,11.2650603 L0.683219215,11.2650603 C0.29689185,11.2650603 0.00574657428,11.5282108 0.00574657428,11.8697466 C0.00574657428,12.2112824 0.302490792,12.4744329 0.683219215,12.4744329 L6.30456239,12.4744329 C6.33255712,12.4800319 6.36055187,12.4800319 6.38854661,12.4800319 C6.67969187,12.4800319 6.91484767,12.2112824 6.91484767,11.8753456 L6.90924871,0.599065507 C6.90924871,0.268727617 6.67969187,-2.18718998e-05 6.38294767,-2.18718998e-05 L6.38294767,-2.18718998e-05 Z M14.6749888,6.23720553 C14.6749888,6.52835079 14.439833,6.76350659 14.1430888,6.76350659 L11.4443961,6.76350659 L12.0042908,7.32340132 C12.205853,7.53616132 12.1946551,7.87209817 11.9818951,8.06806132 C11.881114,8.15764448 11.7579372,8.20803502 11.6235624,8.20803502 C11.4891877,8.20803502 11.3604119,8.15764448 11.2596308,8.06246238 L9.8374982,6.64032974 C9.73671715,6.54514763 9.68072768,6.41077289 9.68072768,6.27079922 C9.68072768,6.1980129 9.69752452,6.13082554 9.72551925,6.06363816 C9.74791504,5.99645078 9.78710767,5.94046133 9.8374982,5.89007079 L11.2652298,4.46793815 C11.3660108,4.3671571 11.5003856,4.31676657 11.6347603,4.31676657 C11.774734,4.31676657 11.9091087,4.37275605 12.0098898,4.47353709 C12.1106709,4.57431814 12.1610614,4.70869288 12.1610614,4.84306763 C12.1610614,4.98304131 12.1050719,5.11741605 12.0042908,5.21259815 L11.5059845,5.71090447 L14.1430888,5.71090447 C14.4286351,5.70530552 14.6637909,5.93486237 14.6693898,6.22040868 C14.6749888,6.23160658 14.6749888,6.23160658 14.6749888,6.23720553 L14.6749888,6.23720553 Z M8.02903819,0.60466445 L8.02343925,11.8809445 C8.02343925,12.2168814 8.26419399,12.4856308 8.54974031,12.4856308 C8.57773504,12.4856308 8.60572979,12.4856308 8.63372452,12.4800319 L14.2550677,12.4800319 C14.6413951,12.4800319 14.9325403,12.2168814 14.9325403,11.8753456 C14.9325403,11.5338098 14.6357961,11.2706592 14.2550677,11.2706592 L9.08164031,11.2706592 L9.08723926,1.22054866 L14.2550677,1.22054866 C14.6413951,1.22054866 14.9325403,0.957398127 14.9325403,0.615862336 C14.9325403,0.274326544 14.6413951,0.00557707093 14.2550677,0.00557707093 L8.63372452,0.00557707093 C8.60572979,-2.18718998e-05 8.57773504,-2.18718998e-05 8.54974031,-2.18718998e-05 C8.26979294,-2.18718998e-05 8.02903821,0.268727601 8.02903819,0.60466445 Z" id="Shape"></path>
                    </g>
                </g>
            </g>
        </g>
    </g>
</svg>