<?xml version="1.0" encoding="UTF-8"?>
<svg width="24px" height="24px" viewBox="0 0 24 24" version="1.1" xmlns="http://www.w3.org/2000/svg" xmlns:xlink="http://www.w3.org/1999/xlink">
    <title>Icon/Calendar</title>
    <g id="Icon/Calendar" stroke="none" stroke-width="1" fill="none" fill-rule="evenodd">
        <path d="M18,1 L18,3 L21,3 C22.104,3 23,3.896 23,5 L23,5 L23,20 C23,21.104 22.104,22 21,22 L21,22 L3,22 C1.896,22 1,21.104 1,20 L1,20 L1,5 C1,3.896 1.896,3 3,3 L3,3 L5,3 L5,5 L3,5 L3,20 L21,20 L21,5 L18,5 L18,7 L16,7 L16,1 L18,1 Z M9,14 L9,18 L5,18 L5,14 L9,14 Z M14,14 L14,18 L10,18 L10,14 L14,14 Z M9,9 L9,13 L5,13 L5,9 L9,9 Z M14,9 L14,13 L10,13 L10,9 L14,9 Z M19,9 L19,13 L15,13 L15,9 L19,9 Z M8,1 L8,3 L15,3 L15,5 L8,5 L8,7 L6,7 L6,1 L8,1 Z" id="形状结合" fill="#00BDF2"></path>
    </g>
</svg>