<?xml version="1.0" encoding="UTF-8"?>
<svg width="14px" height="14px" viewBox="0 0 14 14" version="1.1" xmlns="http://www.w3.org/2000/svg" xmlns:xlink="http://www.w3.org/1999/xlink">
    <title>Icon/chart Copy</title>
    <g id="corev2" stroke="none" stroke-width="1" fill="none" fill-rule="evenodd">
        <g id="Flow-Pricer-General" transform="translate(-381.000000, -95.000000)">
            <g id="sub-header" transform="translate(13.000000, 88.000000)">
                <g id="Icon/chart-Copy" transform="translate(365.000000, 4.000000)">
                    <g id="Group" transform="translate(3.666667, 3.333333)" fill="#00BDF2" fill-rule="nonzero">
                        <path d="M1.10300232,12.6266218 C1.10300232,12.9297721 0.85725044,13.175524 0.554100128,13.175524 C0.250949816,13.175524 0.00519793226,12.9297721 0.00519793226,12.6266218 L0.00519793226,0.553434802 C0.00519793226,0.25028449 0.250949816,0.00453260666 0.554100128,0.00453260666 C0.85725044,0.00453260666 1.10300232,0.25028449 1.10300232,0.553434802 L1.10300232,12.6252911 L1.10300232,12.6266218 Z M0.554100128,13.1748586 C0.250949816,13.1748586 0.00519793226,12.9291067 0.00519793226,12.6259564 C0.00519793226,12.3228061 0.250949816,12.0770542 0.554100128,12.0770542 L12.7630156,12.0770542 C13.066166,12.0770542 13.3119178,12.3228061 13.3119178,12.6259564 C13.3119178,12.9291067 13.066166,13.1748586 12.7630156,13.1748586 L0.554100128,13.1748586 Z" id="Shape"></path>
                    </g>
                    <line x1="5.83333333" y1="14.2551892" x2="14.419887" y2="5.83333333" id="Line-2" stroke="#00BDF2" stroke-linecap="round" stroke-linejoin="round"></line>
                    <circle id="Oval" fill="#00BDF2" cx="7.08333333" cy="11.25" r="1"></circle>
                    <circle id="Oval-Copy" fill="#00BDF2" cx="8.75" cy="12.9166667" r="1"></circle>
                    <circle id="Oval-Copy-11" fill="#00BDF2" cx="7.91666667" cy="13.75" r="1"></circle>
                    <circle id="Oval-Copy-12" fill="#00BDF2" cx="6.25" cy="12.9166667" r="1"></circle>
                    <circle id="Oval-Copy-2" fill="#00BDF2" cx="10.4166667" cy="12.0833333" r="1"></circle>
                    <circle id="Oval-Copy-10" fill="#00BDF2" cx="7.08333333" cy="9.58333333" r="1"></circle>
                    <circle id="Oval-Copy-17" fill="#00BDF2" cx="10.4166667" cy="9.58333333" r="1"></circle>
                    <circle id="Oval-Copy-3" fill="#00BDF2" cx="8.75" cy="9.58333333" r="1"></circle>
                    <circle id="Oval-Copy-4" fill="#00BDF2" cx="12.0833333" cy="10.4166667" r="1"></circle>
                    <circle id="Oval-Copy-9" fill="#00BDF2" cx="12.0833333" cy="12.0833333" r="1"></circle>
                    <circle id="Oval-Copy-15" fill="#00BDF2" cx="10.4166667" cy="13.75" r="1"></circle>
                    <circle id="Oval-Copy-5" fill="#00BDF2" cx="13.75" cy="8.75" r="1"></circle>
                    <circle id="Oval-Copy-14" fill="#00BDF2" cx="12.0833333" cy="8.75" r="1"></circle>
                    <circle id="Oval-Copy-13" fill="#00BDF2" cx="13.75" cy="7.91666667" r="1"></circle>
                    <circle id="Oval-Copy-16" fill="#00BDF2" cx="12.9166667" cy="6.25" r="1"></circle>
                    <circle id="Oval-Copy-6" fill="#00BDF2" cx="9.58333333" cy="7.91666667" r="1"></circle>
                    <circle id="Oval-Copy-7" fill="#00BDF2" cx="11.25" cy="7.91666667" r="1"></circle>
                    <circle id="Oval-Copy-8" fill="#00BDF2" cx="11.25" cy="6.25" r="1"></circle>
                </g>
            </g>
        </g>
    </g>
</svg>