<?xml version="1.0" encoding="UTF-8"?>
<svg width="14px" height="14px" viewBox="0 0 14 14" version="1.1" xmlns="http://www.w3.org/2000/svg" xmlns:xlink="http://www.w3.org/1999/xlink">
    <title>Icon/chart</title>
    <g id="corev2" stroke="none" stroke-width="1" fill="none" fill-rule="evenodd">
        <g id="Flow-Pricer-General" transform="translate(-406.000000, -95.000000)" fill="#00BDF2" fill-rule="nonzero">
            <g id="sub-header" transform="translate(13.000000, 88.000000)">
                <g id="Group" transform="translate(390.000000, 4.000000)">
                    <g id="Group" transform="translate(3.666667, 3.333333)">
                        <path d="M1.10300232,12.6266218 C1.10300232,12.9297721 0.85725044,13.175524 0.554100128,13.175524 C0.250949816,13.175524 0.00519793226,12.9297721 0.00519793226,12.6266218 L0.00519793226,0.553434802 C0.00519793226,0.25028449 0.250949816,0.00453260666 0.554100128,0.00453260666 C0.85725044,0.00453260666 1.10300232,0.25028449 1.10300232,0.553434802 L1.10300232,12.6252911 L1.10300232,12.6266218 Z M0.554100128,13.1748586 C0.250949816,13.1748586 0.00519793226,12.9291067 0.00519793226,12.6259564 C0.00519793226,12.3228061 0.250949816,12.0770542 0.554100128,12.0770542 L12.7630156,12.0770542 C13.066166,12.0770542 13.3119178,12.3228061 13.3119178,12.6259564 C13.3119178,12.9291067 13.066166,13.1748586 12.7630156,13.1748586 L0.554100128,13.1748586 Z M12.0704009,3.60998835 C12.0957082,3.3805454 11.9729848,3.16023255 11.764579,3.06097744 C11.5561733,2.96172233 11.3077764,3.00528582 11.1455838,3.16953593 L7.87612275,6.44099301 L6.07239688,4.6366018 C5.97007231,4.53421633 5.83125385,4.47669166 5.686502,4.47669166 C5.54175014,4.47669166 5.40293169,4.53421633 5.30060711,4.6366018 L2.32655522,7.61065369 C2.22809275,7.70902185 2.17116876,7.84144754 2.16753992,7.98058051 L2.16753992,9.90140552 C2.16753992,10.5068613 2.65988855,10.9992099 3.26534431,10.9992099 L10.9765885,10.9992099 C11.5554308,10.9992099 12.02915,10.5514388 12.0704009,9.98124584 L12.0704009,9.9785845 C12.0723969,9.9526364 12.0737275,9.9266883 12.0737275,9.90140552 L12.0737275,7.98390719 C12.0734585,7.97801071 12.072338,7.97218414 12.0704009,7.96660845 L12.0704009,3.60998835 L12.0704009,3.60998835 Z" id="Shape"></path>
                    </g>
                </g>
            </g>
        </g>
    </g>
</svg>