<?xml version="1.0" encoding="UTF-8"?>
<svg width="24px" height="24px" viewBox="0 0 24 24" version="1.1" xmlns="http://www.w3.org/2000/svg" xmlns:xlink="http://www.w3.org/1999/xlink">
    <title>Icon/Commentary</title>
    <g id="Icon/Commentary" stroke="none" stroke-width="1" fill="none" fill-rule="evenodd">
        <path d="M22,17.999 C22,20.2 20.2,22 17.999,22 L6,22 C3.8,22 2,20.2 2,17.999 L2,6 C2,3.8 3.8,2 6,2 L17.999,2 C20.2,2 22,3.8 22,6 L22,17.999 Z M17.983,16.219 L16.199,14.417 C15.196,15.328 14.304,15.909 12.847,15.909 C10.661,15.909 9.15,14.088 9.15,11.905 L9.15,11.866 C9.15,9.683 10.699,7.9 12.847,7.9 C14.121,7.9 15.122,8.445 16.108,9.336 L17.891,7.28 C16.706,6.113 15.269,5.312 12.866,5.312 C8.951,5.312 6.219,8.281 6.219,11.905 L6.219,11.941 C6.219,15.601 9.005,18.497 12.757,18.497 C15.215,18.497 16.671,17.622 17.983,16.219 Z" id="形状" fill="#73828C"></path>
    </g>
</svg>