<?xml version="1.0" encoding="UTF-8"?>
<svg width="24px" height="24px" viewBox="0 0 24 24" version="1.1" xmlns="http://www.w3.org/2000/svg" xmlns:xlink="http://www.w3.org/1999/xlink">
    <title>Icon/Conference</title>
    <g id="Icon/Conference" stroke="none" stroke-width="1" fill="none" fill-rule="evenodd">
        <path d="M13,3 L13,5 L3,5 L3,13 L8.145,13 C8.498,11.755 9.523,11 11,11 C12.477,11 13.502,11.755 13.855,13 L13.855,13 L19,13 L19,9 L21,9 L21,16 C21,17.103 20.103,18 19,18 L19,18 L12,18 L12,20 L16,20 L16,22 L6,22 L6,20 L10,20 L10,18 L3,18 C1.897,18 1,17.103 1,16 L1,16 L1,5 C1,3.897 1.897,3 3,3 L3,3 L13,3 Z M19,15 L3,15 L3,16 L19,16 L19,15 Z M11,6 C12.104,6 13,6.895 13,8 C13,9.105 12.104,10 11,10 C9.896,10 9,9.105 9,8 C9,6.895 9.896,6 11,6 Z M20,1 C20.552,1 21,1.447 21,2 L21,2 L21,3 L24,2 L24,6 L21,5 L21,6 C21,6.553 20.552,7 20,7 L20,7 L16,7 C15.448,7 15,6.553 15,6 L15,6 L15,2 C15,1.447 15.448,1 16,1 L16,1 Z" id="形状结合" fill="#C4D600"></path>
    </g>
</svg>