<?xml version="1.0" encoding="UTF-8"?>
<svg width="14px" height="16px" viewBox="0 0 14 16" version="1.1" xmlns="http://www.w3.org/2000/svg" xmlns:xlink="http://www.w3.org/1999/xlink">
    <title>Icon/decrease</title>
    <g id="corev2" stroke="none" stroke-width="1" fill="none" fill-rule="evenodd">
        <g id="Flow-Pricer-General" transform="translate(-456.000000, -94.000000)" fill="#00BDF2" fill-rule="nonzero">
            <g id="sub-header" transform="translate(13.000000, 88.000000)">
                <g id="Group" transform="translate(440.000000, 4.000000)">
                    <g id="Group" transform="translate(3.333333, 2.500000)">
                        <path d="M10.1055077,8.14119826 C11.6270213,8.14119826 12.8634176,9.67869966 12.8634176,11.5705991 C12.8634176,13.4624986 11.6243566,15 10.1055077,15 C8.58399423,15 7.34493332,13.4624986 7.34493332,11.5705991 C7.34493332,9.67869966 8.58399424,8.14119826 10.1055077,8.14119826 Z M7.09179184,13.369236 L7.09179184,14.2912039 L6.16982392,14.2912039 L6.16982392,13.369236 L7.09179184,13.369236 Z M10.1055077,9.12711769 L10.1055077,9.13777627 C9.12758225,9.13777627 8.33085275,10.2329462 8.33085275,11.5812577 C8.33085275,12.9295692 9.13024689,14.0274038 10.1055077,14.0274038 C11.0807686,14.0274038 11.8774981,12.9295692 11.8774981,11.5812577 C11.8774981,10.2329463 11.0834333,9.12711769 10.1055077,9.12711769 Z M4.00879509,8.50625491 L5.93799962,10.4354594 L5.93533498,10.4407887 L5.93799962,10.4407887 L5.93799962,11.2428475 L5.93267032,11.2428475 L4.00879509,13.1667228 L3.44122525,12.5991529 L4.79753065,11.2428475 L0.00116577555,11.2428475 L0.00116577555,10.4407887 L4.80552458,10.4407887 L3.44122525,9.07382475 L4.00879509,8.50625491 Z M10.1055077,-5.35867647e-14 C11.6270213,-5.35867647e-14 12.8634176,1.5375014 12.8634176,3.42940087 C12.8634176,5.32130034 11.6243566,6.85880174 10.1055077,6.85880174 C8.58399423,6.85880174 7.34493332,5.32130034 7.34493332,3.42940087 C7.34493332,1.5375014 8.58399423,-5.35867647e-14 10.1055077,-5.35867647e-14 Z M3.99813649,-5.35867647e-14 C5.51432071,-5.35867647e-14 6.76404023,1.5375014 6.76404023,3.42940087 C6.76404023,5.32130034 5.52497931,6.85880174 3.99813649,6.85880174 C2.48195228,6.85880174 1.24555599,5.32929429 1.24555599,3.42940087 C1.24555599,1.52950745 2.48195228,-5.35867647e-14 3.99813649,-5.35867647e-14 Z M10.1055077,0.985919447 L10.1055077,0.996578033 C9.12758225,0.996578033 8.33085275,2.09174801 8.33085275,3.44005946 C8.33085275,4.78837091 9.13024689,5.88620554 10.1055077,5.88620554 C11.0807686,5.88620554 11.8774981,4.78837091 11.8774981,3.44005946 C11.8774981,2.09174801 11.0834333,0.985919447 10.1055077,0.985919447 Z M3.99813649,0.985919447 L3.99813649,0.996578033 C3.02021099,0.996578033 2.22348149,2.09174801 2.22348149,3.44005946 C2.22348149,4.78837091 3.02287563,5.88620554 3.99813649,5.88620554 C4.97339736,5.88620554 5.77279149,4.78837091 5.77279149,3.44005946 C5.77279149,2.09174801 4.9813913,0.985919447 3.99813649,0.985919447 Z M1.22423882,4.47997308 L1.22423882,5.40194098 L0.302270904,5.40194098 L0.302270904,4.47997308 L1.22423882,4.47997308 Z" id="Combined-Shape"></path>
                    </g>
                </g>
            </g>
        </g>
    </g>
</svg>