<?xml version="1.0" encoding="UTF-8"?>
<svg width="24px" height="24px" viewBox="0 0 24 24" version="1.1" xmlns="http://www.w3.org/2000/svg" xmlns:xlink="http://www.w3.org/1999/xlink">
    <title>Icon/decrease</title>
    <g id="Icon/decrease" stroke="none" stroke-width="1" fill="none" fill-rule="evenodd">
        <g id="Group" transform="translate(4.000000, 3.000000)" fill="#00BDF2" fill-rule="nonzero">
            <path d="M12.1266093,9.76943791 C13.9524255,9.76943791 15.4361011,11.6144396 15.4361011,13.884719 C15.4361011,16.1549983 13.949228,18 12.1266093,18 C10.3007931,18 8.81391998,16.1549983 8.81391998,13.884719 C8.81391998,11.6144396 10.3007931,9.76943791 12.1266093,9.76943791 Z M8.51015021,16.0430831 L8.51015021,17.1494446 L7.40378871,17.1494446 L7.40378871,16.0430831 L8.51015021,16.0430831 Z M12.1266093,10.9525412 L12.1266093,10.9653315 C10.9530987,10.9653315 9.9970233,12.2795355 9.9970233,13.8975093 C9.9970233,15.515483 10.9562963,16.8328846 12.1266093,16.8328846 C13.2969223,16.8328846 14.2529977,15.515483 14.2529977,13.8975093 C14.2529977,12.2795355 13.3001199,10.9525412 12.1266093,10.9525412 Z M4.81055411,10.2075059 L7.12559954,12.5225513 L7.12240197,12.5289465 L7.12559954,12.5289465 L7.12559954,13.491417 L7.11920439,13.491417 L4.81055411,15.8000673 L4.1294703,15.1189835 L5.75703678,13.491417 L0.00139893066,13.491417 L0.00139893066,12.5289465 L5.76662949,12.5289465 L4.1294703,10.8885897 L4.81055411,10.2075059 Z M12.1266093,-6.39488462e-14 C13.9524255,-6.39488462e-14 15.4361011,1.84500168 15.4361011,4.11528105 C15.4361011,6.38556041 13.949228,8.23056209 12.1266093,8.23056209 C10.3007931,8.23056209 8.81391998,6.38556041 8.81391998,4.11528105 C8.81391998,1.84500168 10.3007931,-6.39488462e-14 12.1266093,-6.39488462e-14 Z M4.79776379,-6.39488462e-14 C6.61718485,-6.39488462e-14 8.11684828,1.84500168 8.11684828,4.11528105 C8.11684828,6.38556041 6.62997517,8.23056209 4.79776379,8.23056209 C2.97834274,8.23056209 1.49466719,6.39515315 1.49466719,4.11528105 C1.49466719,1.83540894 2.97834274,-6.39488462e-14 4.79776379,-6.39488462e-14 Z M12.1266093,1.18310334 L12.1266093,1.19589364 C10.9530987,1.19589364 9.9970233,2.51009761 9.9970233,4.12807135 C9.9970233,5.74604509 10.9562963,7.06344664 12.1266093,7.06344664 C13.2969223,7.06344664 14.2529977,5.74604509 14.2529977,4.12807135 C14.2529977,2.51009761 13.3001199,1.18310334 12.1266093,1.18310334 Z M4.79776379,1.18310334 L4.79776379,1.19589364 C3.62425319,1.19589364 2.66817779,2.51009761 2.66817779,4.12807135 C2.66817779,5.74604509 3.62745076,7.06344664 4.79776379,7.06344664 C5.96807683,7.06344664 6.92734979,5.74604509 6.92734979,4.12807135 C6.92734979,2.51009761 5.97766956,1.18310334 4.79776379,1.18310334 Z M1.46908659,5.37596769 L1.46908659,6.48232918 L0.362725085,6.48232918 L0.362725085,5.37596769 L1.46908659,5.37596769 Z" id="Combined-Shape"></path>
        </g>
    </g>
</svg>