<?xml version="1.0" encoding="UTF-8"?>
<svg width="24px" height="24px" viewBox="0 0 24 24" version="1.1" xmlns="http://www.w3.org/2000/svg" xmlns:xlink="http://www.w3.org/1999/xlink">
    <title>Icon/Drag</title>
    <g id="Icon/Drag" stroke="none" stroke-width="1" fill="none" fill-rule="evenodd">
        <path d="M7,19 C7.55228475,19 8,19.4477153 8,20 L8,22 C8,22.5522847 7.55228475,23 7,23 L5,23 C4.44771525,23 4,22.5522847 4,22 L4,20 C4,19.4477153 4.44771525,19 5,19 L7,19 Z M13,19 C13.5522847,19 14,19.4477153 14,20 L14,22 C14,22.5522847 13.5522847,23 13,23 L11,23 C10.4477153,23 10,22.5522847 10,22 L10,20 C10,19.4477153 10.4477153,19 11,19 L13,19 Z M19,19 C19.5522847,19 20,19.4477153 20,20 L20,22 C20,22.5522847 19.5522847,23 19,23 L17,23 C16.4477153,23 16,22.5522847 16,22 L16,20 C16,19.4477153 16.4477153,19 17,19 L19,19 Z M7,13 C7.55228475,13 8,13.4477153 8,14 L8,16 C8,16.5522847 7.55228475,17 7,17 L5,17 C4.44771525,17 4,16.5522847 4,16 L4,14 C4,13.4477153 4.44771525,13 5,13 L7,13 Z M13,13 C13.5522847,13 14,13.4477153 14,14 L14,16 C14,16.5522847 13.5522847,17 13,17 L11,17 C10.4477153,17 10,16.5522847 10,16 L10,14 C10,13.4477153 10.4477153,13 11,13 L13,13 Z M19,13 C19.5522847,13 20,13.4477153 20,14 L20,16 C20,16.5522847 19.5522847,17 19,17 L17,17 C16.4477153,17 16,16.5522847 16,16 L16,14 C16,13.4477153 16.4477153,13 17,13 L19,13 Z M7,7 C7.55228475,7 8,7.44771525 8,8 L8,10 C8,10.5522847 7.55228475,11 7,11 L5,11 C4.44771525,11 4,10.5522847 4,10 L4,8 C4,7.44771525 4.44771525,7 5,7 L7,7 Z M13,7 C13.5522847,7 14,7.44771525 14,8 L14,10 C14,10.5522847 13.5522847,11 13,11 L11,11 C10.4477153,11 10,10.5522847 10,10 L10,8 C10,7.44771525 10.4477153,7 11,7 L13,7 Z M19,7 C19.5522847,7 20,7.44771525 20,8 L20,10 C20,10.5522847 19.5522847,11 19,11 L17,11 C16.4477153,11 16,10.5522847 16,10 L16,8 C16,7.44771525 16.4477153,7 17,7 L19,7 Z M7,1 C7.55228475,1 8,1.44771525 8,2 L8,4 C8,4.55228475 7.55228475,5 7,5 L5,5 C4.44771525,5 4,4.55228475 4,4 L4,2 C4,1.44771525 4.44771525,1 5,1 L7,1 Z M13,1 C13.5522847,1 14,1.44771525 14,2 L14,4 C14,4.55228475 13.5522847,5 13,5 L11,5 C10.4477153,5 10,4.55228475 10,4 L10,2 C10,1.44771525 10.4477153,1 11,1 L13,1 Z M19,1 C19.5522847,1 20,1.44771525 20,2 L20,4 C20,4.55228475 19.5522847,5 19,5 L17,5 C16.4477153,5 16,4.55228475 16,4 L16,2 C16,1.44771525 16.4477153,1 17,1 L19,1 Z" id="形状结合" fill="#FFFFFF"></path>
    </g>
</svg>