<?xml version="1.0" encoding="UTF-8"?>
<svg width="24px" height="24px" viewBox="0 0 24 24" version="1.1" xmlns="http://www.w3.org/2000/svg" xmlns:xlink="http://www.w3.org/1999/xlink">
    <title>Icon/File</title>
    <g id="Icon/File" stroke="none" stroke-width="1" fill="none" fill-rule="evenodd">
        <path d="M15.414,2 L20,6.586 L20,20 C20,21.103 19.103,22 18,22 L18,22 L6,22 C4.897,22 4,21.103 4,20 L4,20 L4,4 C4,2.898 4.897,2 6,2 L6,2 L15.414,2 Z M14,4 L6,4 L6,20 L18.001,20 L18,8 L14,8 L14,4 Z M16,15 L16,17 L8,17 L8,15 L16,15 Z M14,11 L14,13 L8,13 L8,11 L14,11 Z" id="形状结合" fill="#00BDF2"></path>
    </g>
</svg>