<?xml version="1.0" encoding="UTF-8"?>
<svg width="24px" height="24px" viewBox="0 0 24 24" version="1.1" xmlns="http://www.w3.org/2000/svg" xmlns:xlink="http://www.w3.org/1999/xlink">
    <!-- Generator: Sketch 63.1 (92452) - https://sketch.com -->
    <title>Icon/Arrow/Group</title>
    <desc>Created with Sketch.</desc>
    <g id="Icon/Arrow/Group" stroke="none" stroke-width="1" fill="none" fill-rule="evenodd">
        <g id="Group" transform="translate(2.000000, 4.000000)" fill="#00BDF2" fill-rule="nonzero">
            <path d="M1.04499876,7.4524346 L4.48628322,7.4524346 L3.83601926,6.80217066 C3.56568481,6.53914254 3.56568481,6.10076237 3.82871293,5.83042792 C3.96022698,5.69891387 4.13557905,5.62585051 4.31823747,5.62585051 C4.5008959,5.62585051 4.66894162,5.69891387 4.80045567,5.82312159 L6.66357145,7.67893105 C6.72932849,7.74468808 6.77316649,7.82505778 6.80969818,7.90542747 C6.84622986,7.99310352 6.86814889,8.08077954 6.86814889,8.17576192 C6.86814889,8.35842032 6.79508552,8.5337724 6.66357145,8.65798012 L4.81506835,10.5284022 C4.6835543,10.65261 4.51550856,10.718367 4.34015649,10.718367 C3.960227,10.718367 3.65336086,10.4188072 3.65336086,10.0388777 C3.65336086,9.86352563 3.71911789,9.68817356 3.84332561,9.56396584 L4.57395924,8.83333219 L1.04499876,8.83333219 C0.66506927,8.84794487 0.350896797,8.54838508 0.336284116,8.16845557 C0.321671434,7.78852608 0.621231226,7.47435361 1.00116073,7.45974095 C1.01577342,7.45974095 1.03038608,7.45974095 1.04499876,7.4524346 L1.04499876,7.4524346 Z M8.32941618,-2.85416966e-05 C8.2928845,-2.85416966e-05 8.25635281,-2.85416966e-05 8.21982112,0.00727778877 L0.884259345,0.00727778877 C0.387428469,0.0145841192 0.00749898186,0.357981934 0.00749898186,0.803668456 C0.00749898186,1.24935498 0.39473482,1.59275279 0.891565696,1.59275279 L7.63531421,1.59275279 L7.64262055,14.7003203 L0.891565696,14.7003203 C0.38742849,14.7003203 0.00749898186,15.0437182 0.00749898186,15.4894047 C0.00749898186,15.9350912 0.39473482,16.278489 0.891565696,16.278489 L8.22712745,16.278489 C8.26365912,16.2857953 8.30019081,16.2857953 8.33672251,16.2857953 C8.71665199,16.2857953 9.02351814,15.9350912 9.02351814,15.496711 L9.01621178,0.781749465 C9.01621178,0.350675624 8.71665199,-2.85416966e-05 8.32941618,-2.85416966e-05 L8.32941618,-2.85416966e-05 Z M19.1501004,8.13923023 C19.1501004,8.51915972 18.8432343,8.82602586 18.4559984,8.82602586 L14.9343443,8.82602586 L15.6649779,9.55665949 C15.928006,9.83430027 15.9133934,10.2726805 15.6357526,10.5284022 C15.5042385,10.6453036 15.3434991,10.7110607 15.1681471,10.7110607 C14.992795,10.7110607 14.8247492,10.6453036 14.6932352,10.5210959 L12.8374257,8.66528645 C12.7059117,8.54107873 12.6328483,8.36572665 12.6328483,8.18306825 C12.6328483,8.08808587 12.6547673,8.00040985 12.691299,7.9127338 C12.7205243,7.82505776 12.7716687,7.75199441 12.8374257,7.68623738 L14.7005415,5.83042792 C14.8320556,5.69891387 15.0074076,5.63315684 15.1827597,5.63315684 C15.3654181,5.63315684 15.5407702,5.7062202 15.6722843,5.83773425 C15.8037983,5.9692483 15.8695554,6.14460037 15.8695554,6.31995247 C15.8695554,6.50261087 15.796492,6.67796294 15.6649779,6.80217066 L15.014714,7.4524346 L18.4559984,7.4524346 C18.8286216,7.44512827 19.1354877,7.74468806 19.1427941,8.11731122 C19.1501004,8.1319239 19.1501004,8.1319239 19.1501004,8.13923023 L19.1501004,8.13923023 Z M10.4774791,0.789055796 L10.4701727,15.5040173 C10.4701727,15.9423975 10.7843452,16.2931017 11.1569684,16.2931017 C11.1935,16.2931017 11.2300317,16.2931017 11.2665634,16.2857953 L18.6021252,16.2857953 C19.1062624,16.2857953 19.4861919,15.9423975 19.4861919,15.496711 C19.4861919,15.0510245 19.098956,14.7076267 18.6021252,14.7076267 L11.8510703,14.7076267 L11.8583767,1.59275279 L18.6021252,1.59275279 C19.1062624,1.59275279 19.4861919,1.24935498 19.4861919,0.803668456 C19.4861919,0.357981934 19.1062624,0.00727778877 18.6021252,0.00727778877 L11.2665634,0.00727778877 C11.2300317,-2.85416966e-05 11.1935,-2.85416966e-05 11.1569684,-2.85416966e-05 C10.7916515,-2.85416966e-05 10.4774791,0.350675604 10.4774791,0.789055796 Z" id="Shape"></path>
        </g>
    </g>
</svg>