<?xml version="1.0" encoding="UTF-8"?>
<svg width="24px" height="24px" viewBox="0 0 24 24" version="1.1" xmlns="http://www.w3.org/2000/svg" xmlns:xlink="http://www.w3.org/1999/xlink">
    <title>Icon/Group</title>
    <g id="Icon/Group" stroke="none" stroke-width="1" fill="none" fill-rule="evenodd">
        <path d="M3.95406064,11.8530854 L7.11858571,11.8530854 L6.52061812,11.2551178 C6.27202485,11.0132432 6.27202485,10.610119 6.51389939,10.3615258 C6.63483664,10.2405885 6.79608633,10.1734012 6.96405476,10.1734012 C7.1320232,10.1734012 7.28655413,10.2405885 7.40749139,10.354807 L9.12076929,12.0613662 C9.18123793,12.1218349 9.22155033,12.195741 9.25514403,12.2696471 C9.2887377,12.3502719 9.30889394,12.4308967 9.30889394,12.5182403 C9.30889394,12.6862087 9.24170657,12.8474584 9.12076929,12.961677 L7.42092887,14.6816736 C7.29999161,14.7958921 7.14546066,14.8563608 6.98421097,14.8563608 C6.63483666,14.8563608 6.3526497,14.5808925 6.3526497,14.2315182 C6.3526497,14.0702685 6.41311834,13.9090189 6.52733687,13.7948003 L7.19921055,13.1229266 L3.95406064,13.1229266 C3.60468633,13.1363641 3.31578064,12.8608959 3.30234315,12.5115216 C3.28890567,12.1621473 3.56437388,11.8732416 3.91374821,11.8598041 C3.9271857,11.8598041 3.94062316,11.8598041 3.95406064,11.8530854 L3.95406064,11.8530854 Z M10.6526413,4.99997375 C10.6190476,4.99997375 10.5854539,4.99997375 10.5518602,5.00669249 L3.80624842,5.00669249 C3.34937431,5.01341122 3,5.32919185 3,5.7390348 C3,6.14887775 3.35609306,6.46465839 3.81296717,6.46465839 L10.0143613,6.46465839 L10.02108,18.5180724 L3.81296717,18.5180724 C3.34937433,18.5180724 3,18.833853 3,19.2436959 C3,19.6535389 3.35609306,19.9693195 3.81296717,19.9693195 L10.558579,19.9693195 C10.5921727,19.9760383 10.6257664,19.9760383 10.65936,19.9760383 C11.0087344,19.9760383 11.2909213,19.6535389 11.2909213,19.2504147 L11.2842026,5.71887861 C11.2842026,5.32247314 11.0087344,4.99997375 10.6526413,4.99997375 L10.6526413,4.99997375 Z M20.6030906,12.4846466 C20.6030906,12.8340209 20.3209037,13.1162079 19.9648106,13.1162079 L16.7263794,13.1162079 L17.3982531,13.7880816 C17.6401277,14.0433936 17.6266902,14.4465178 17.3713782,14.6816736 C17.2504409,14.7891734 17.1026287,14.849642 16.941379,14.849642 C16.7801293,14.849642 16.6255984,14.7891734 16.5046611,14.6749549 L14.798102,12.9683957 C14.6771647,12.8541772 14.6099773,12.6929275 14.6099773,12.5249591 C14.6099773,12.4376155 14.6301335,12.3569906 14.6637272,12.2763658 C14.6906022,12.1957409 14.7376333,12.1285536 14.798102,12.068085 L16.5113799,10.3615258 C16.6323171,10.2405885 16.7935668,10.1801199 16.9548165,10.1801199 C17.1227849,10.1801199 17.2840346,10.2473073 17.4049719,10.3682445 C17.5259091,10.4891818 17.5863778,10.6504315 17.5863778,10.8116812 C17.5863778,10.9796496 17.5191904,11.1408993 17.3982531,11.2551178 L16.8002855,11.8530854 L19.9648106,11.8530854 C20.3074662,11.8463666 20.5896531,12.1218348 20.5963719,12.4644904 C20.6030906,12.4779279 20.6030906,12.4779279 20.6030906,12.4846466 L20.6030906,12.4846466 Z M12.6279499,5.72559734 L12.6212312,19.2571334 C12.6212312,19.6602576 12.9101369,19.982757 13.2527925,19.982757 C13.2863862,19.982757 13.3199799,19.982757 13.3535735,19.9760383 L20.0991854,19.9760383 C20.5627782,19.9760383 20.9121525,19.6602576 20.9121525,19.2504147 C20.9121525,18.8405717 20.5560594,18.5247911 20.0991854,18.5247911 L13.8910725,18.5247911 L13.8977912,6.46465839 L20.0991854,6.46465839 C20.5627782,6.46465839 20.9121525,6.14887775 20.9121525,5.7390348 C20.9121525,5.32919185 20.5627782,5.00669249 20.0991854,5.00669249 L13.3535735,5.00669249 C13.3199799,4.99997375 13.2863862,4.99997375 13.2527925,4.99997375 C12.9168556,4.99997375 12.62795,5.32247312 12.6279499,5.72559734 Z" id="Shape" fill="#00BDF2" fill-rule="nonzero"></path>
    </g>
</svg>