<?xml version="1.0" encoding="UTF-8"?>
<svg width="24px" height="24px" viewBox="0 0 24 24" version="1.1" xmlns="http://www.w3.org/2000/svg" xmlns:xlink="http://www.w3.org/1999/xlink">
    <!-- Generator: Sketch 63.1 (92452) - https://sketch.com -->
    <title>Icon/Arrow/Group</title>
    <desc>Created with Sketch.</desc>
    <g id="Icon/Arrow/Group" stroke="none" stroke-width="1" fill="none" fill-rule="evenodd">
        <g id="Group" transform="translate(1.000000, 3.000000)" fill="#00BDF2" fill-rule="nonzero">
            <path d="M1.14949863,8.19767806 L4.93491154,8.19767806 L4.21962119,7.48238773 C3.92225329,7.1930568 3.92225329,6.71083861 4.21158422,6.41347071 C4.35624968,6.26880526 4.54913696,6.18843556 4.75006122,6.18843556 C4.95098549,6.18843556 5.13583578,6.26880526 5.28050124,6.40543375 L7.3299286,8.44682415 C7.40226134,8.51915689 7.45048314,8.60756355 7.490668,8.69597022 C7.53085284,8.79241387 7.55496378,8.8888575 7.55496378,8.99333811 C7.55496378,9.19426236 7.47459408,9.38714964 7.3299286,9.52377813 L5.29657519,11.5812425 C5.15190973,11.7178709 4.96705941,11.7902037 4.77417213,11.7902037 C4.3562497,11.7902037 4.01869694,11.4606879 4.01869694,11.0427655 C4.01869694,10.8498782 4.09102968,10.6569909 4.22765817,10.5203624 L5.03135517,9.71666541 L1.14949863,9.71666541 C0.731576197,9.73273936 0.385986476,9.40322359 0.369912527,8.98530113 C0.353838578,8.56737869 0.683354349,8.22178897 1.10127681,8.20571504 C1.11735076,8.20571504 1.13342468,8.20571504 1.14949863,8.19767806 L1.14949863,8.19767806 Z M9.16235779,-3.13958663e-05 C9.12217295,-3.13958663e-05 9.08198809,-3.13958663e-05 9.04180323,0.00800556764 L0.97268528,0.00800556764 C0.426171316,0.0160425312 0.00824888004,0.393780128 0.00824888004,0.884035302 C0.00824888004,1.37429048 0.434208302,1.75202807 0.980722266,1.75202807 L8.39884564,1.75202807 L8.4068826,16.1703524 L0.980722266,16.1703524 C0.426171339,16.1703524 0.00824888004,16.54809 0.00824888004,17.0383451 C0.00824888004,17.5286003 0.434208302,17.9063379 0.980722266,17.9063379 L9.04984019,17.9063379 C9.09002503,17.9143749 9.13020989,17.9143749 9.17039476,17.9143749 C9.58831719,17.9143749 9.92586995,17.5286003 9.92586995,17.0463821 L9.91783296,0.859924412 C9.91783296,0.385743186 9.58831719,-3.13958663e-05 9.16235779,-3.13958663e-05 L9.16235779,-3.13958663e-05 Z M21.0651105,8.95315325 C21.0651105,9.37107569 20.7275577,9.70862844 20.3015983,9.70862844 L16.4277787,9.70862844 L17.2314757,10.5123254 C17.5208067,10.8177303 17.5047327,11.2999485 17.1993278,11.5812425 C17.0546624,11.709834 16.877849,11.7821667 16.6849618,11.7821667 C16.4920745,11.7821667 16.3072242,11.709834 16.1625587,11.5732055 L14.1211683,9.53181509 C13.9765029,9.3951866 13.8961331,9.20229932 13.8961331,9.00137508 C13.8961331,8.89689446 13.9202441,8.80045083 13.9604289,8.70400718 C13.9925768,8.60756353 14.0488356,8.52719385 14.1211683,8.45486111 L16.1705957,6.41347071 C16.3152611,6.26880526 16.5081484,6.19647252 16.7010357,6.19647252 C16.9019599,6.19647252 17.0948472,6.27684222 17.2395127,6.42150768 C17.3841782,6.56617313 17.4565109,6.75906041 17.4565109,6.95194771 C17.4565109,7.15287196 17.3761412,7.34575924 17.2314757,7.48238773 L16.5161854,8.19767806 L20.3015983,8.19767806 C20.7114838,8.18964109 21.0490365,8.51915687 21.0570735,8.92904234 C21.0651105,8.94511629 21.0651105,8.94511629 21.0651105,8.95315325 L21.0651105,8.95315325 Z M11.525227,0.867961375 L11.51719,17.0544191 C11.51719,17.5366373 11.8627797,17.9224118 12.2726652,17.9224118 C12.31285,17.9224118 12.3530349,17.9224118 12.3932197,17.9143749 L20.4623377,17.9143749 C21.0168886,17.9143749 21.4348111,17.5366373 21.4348111,17.0463821 C21.4348111,16.5561269 21.0088516,16.1783893 20.4623377,16.1783893 L13.0361774,16.1783893 L13.0442143,1.75202807 L20.4623377,1.75202807 C21.0168886,1.75202807 21.4348111,1.37429048 21.4348111,0.884035302 C21.4348111,0.393780128 21.0168886,0.00800556764 20.4623377,0.00800556764 L12.3932197,0.00800556764 C12.3530349,-3.13958663e-05 12.31285,-3.13958663e-05 12.2726652,-3.13958663e-05 C11.8708167,-3.13958663e-05 11.525227,0.385743164 11.525227,0.867961375 Z" id="Shape"></path>
        </g>
    </g>
</svg>