<?xml version="1.0" encoding="UTF-8"?>
<svg width="24px" height="24px" viewBox="0 0 24 24" version="1.1" xmlns="http://www.w3.org/2000/svg" xmlns:xlink="http://www.w3.org/1999/xlink">
    <title>Icon/Image File</title>
    <g id="Icon/Image-File" stroke="none" stroke-width="1" fill="none" fill-rule="evenodd">
        <path d="M16.414,1.001 L21,5.587 L21,21.001 C21,22.104 20.103,23.001 19,23.001 L19,23.001 L5,23.001 C3.897,23.001 3,22.104 3,21.001 L3,21.001 L3,3.001 C3,1.898 3.897,1.001 5,1.001 L5,1.001 L16.414,1.001 Z M15,3.001 L5,3.001 L5,21.001 L19.001,21.001 L19,7.001 L15,7.001 L15,3.001 Z M14,12.002 L17,18.002 L7,18.002 L10,14.002 L12,16.002 L14,12.002 Z M10,9.002 C11.104,9.002 12,9.897 12,11.002 C12,12.107 11.104,13.002 10,13.002 C8.894,13.002 8,12.107 8,11.002 C8,9.897 8.894,9.002 10,9.002 Z" id="形状结合" fill="#A7B3BE"></path>
    </g>
</svg>