<?xml version="1.0" encoding="UTF-8"?>
<svg width="24px" height="24px" viewBox="0 0 24 24" version="1.1" xmlns="http://www.w3.org/2000/svg" xmlns:xlink="http://www.w3.org/1999/xlink">
    <title>Icon/increase</title>
    <g id="Icon/increase" stroke="none" stroke-width="1" fill="none" fill-rule="evenodd">
        <g id="Group" transform="translate(4.000000, 3.000000)" fill="#00BDF2" fill-rule="nonzero">
            <path d="M12.9290824,8.05965722 C11.1443098,8.05965722 9.68831112,6.25296639 9.68831112,4.0298286 C9.68831112,1.80669081 11.1443098,0 12.9290824,0 C14.7138549,0 16.1729848,1.80669083 16.1729848,4.0298286 C16.1729848,6.25296637 14.7232485,8.05965722 12.9290824,8.05965722 Z M12.9290824,1.17106131 C11.7799393,1.17106131 10.8468477,2.45797627 10.8468477,4.04235333 C10.8468477,5.6267304 11.7862017,6.91677653 12.9290824,6.91677653 C14.071963,6.91677653 15.0144482,5.6267304 15.0144482,4.04235333 C15.0144482,2.45797627 14.0970125,1.15853658 12.9290824,1.15853658 L12.9290824,1.17106131 Z M12.9290824,18 C11.1443098,18 9.68831112,16.190178 9.68831112,13.9701714 C9.68831112,11.7501648 11.1443098,9.94034278 12.9290824,9.94034278 C14.7138549,9.94034278 16.1729848,11.7470336 16.1729848,13.9701714 C16.1729848,16.1933092 14.7232485,18 12.9290824,18 Z M12.9290824,11.1114041 C11.7799393,11.1114041 10.8468477,12.4014502 10.8468477,13.9858273 C10.8468477,15.5702044 11.7799393,16.8477258 12.9290824,16.8477258 C14.0782254,16.8477258 15.0144482,15.5576796 15.0144482,13.9764338 C15.0144482,12.3951879 14.0970125,11.0957482 12.9290824,11.0957482 L12.9290824,11.1114041 Z M5.76181145,18 C3.97390769,18 2.51164665,16.190178 2.51164665,13.9701714 C2.51164665,11.7501648 3.96764533,9.94034278 5.7555491,9.94034278 C7.54345286,9.94034278 8.99632035,11.7470336 8.99632035,13.9701714 C8.99632035,16.1933092 7.54971522,18 5.76181145,18 Z M5.76181145,11.1114041 C4.61266841,11.1114041 3.6764456,12.4014502 3.6764456,13.9858273 C3.6764456,15.5702044 4.61579959,16.8571193 5.76181145,16.8571193 C6.90782332,16.8571193 7.83465258,15.5514173 7.83465258,13.9701714 C7.83465258,12.3889255 6.9109545,11.0957482 5.76181145,11.0957482 L5.76181145,11.1114041 Z M6.95165983,6.38134477 L8.0350481,6.38134477 L8.0350481,7.46473303 L6.95165983,7.46473303 L6.95165983,6.38134477 Z M0.00670267676,15.8394858 L1.09009095,15.8394858 L1.09009095,16.9228741 L0.00670267676,16.9228741 L0.00670267676,15.8394858 Z" id="Combined-Shape"></path>
            <g id="Path-2" transform="translate(0.138212, 2.007086)">
                <polygon id="Path" points="6.97626896 2.27010547 1.33075148 2.27010547 2.93391563 0.666941321 2.26697429 2.79776202e-14 -1.86517468e-14 2.26384312 0.00313117773 2.27010547 -1.83880688e-14 3.21572182 0.00626237402 3.21572182 2.26697429 5.47330258 2.93391563 4.80636124 1.34014504 3.21572182 6.97626896 3.21572182"></polygon>
            </g>
        </g>
    </g>
</svg>