<?xml version="1.0" encoding="UTF-8"?>
<svg width="14px" height="16px" viewBox="0 0 14 16" version="1.1" xmlns="http://www.w3.org/2000/svg" xmlns:xlink="http://www.w3.org/1999/xlink">
    <title>Icon/increase</title>
    <g id="corev2" stroke="none" stroke-width="1" fill="none" fill-rule="evenodd">
        <g id="Flow-Pricer-General" transform="translate(-431.000000, -94.000000)" fill="#00BDF2" fill-rule="nonzero">
            <g id="sub-header" transform="translate(13.000000, 88.000000)">
                <g id="Group" transform="translate(415.000000, 4.000000)">
                    <g id="Group" transform="translate(3.333333, 2.500000)">
                        <path d="M10.7742353,6.71638102 C9.28692483,6.71638102 8.0735926,5.21080532 8.0735926,3.3581905 C8.0735926,1.50557568 9.28692483,0 10.7742353,0 C12.2615458,0 13.4774874,1.50557569 13.4774874,3.3581905 C13.4774874,5.21080531 12.2693737,6.71638102 10.7742353,6.71638102 Z M10.7742353,0.975884423 C9.81661611,0.975884423 9.03903976,2.04831355 9.03903976,3.36862778 C9.03903976,4.688942 9.82183475,5.76398044 10.7742353,5.76398044 C11.7266359,5.76398044 12.5120402,4.688942 12.5120402,3.36862778 C12.5120402,2.04831355 11.7475104,0.965447148 10.7742353,0.965447148 L10.7742353,0.975884423 Z M10.7742353,15 C9.28692483,15 8.0735926,13.491815 8.0735926,11.6418095 C8.0735926,9.79180401 9.28692483,8.28361898 10.7742353,8.28361898 C12.2615458,8.28361898 13.4774874,9.78919468 13.4774874,11.6418095 C13.4774874,13.4944243 12.2693737,15 10.7742353,15 Z M10.7742353,9.2595034 C9.81661611,9.2595034 9.03903976,10.3345419 9.03903976,11.6548561 C9.03903976,12.9751703 9.81661611,14.0397715 10.7742353,14.0397715 C11.7318545,14.0397715 12.5120402,12.964733 12.5120402,11.6470281 C12.5120402,10.3293232 11.7475104,9.24645682 10.7742353,9.24645682 L10.7742353,9.2595034 Z M4.80150954,15 C3.31158974,15 2.09303887,13.491815 2.09303887,11.6418095 C2.09303887,9.79180401 3.30637111,8.28361898 4.79629091,8.28361898 C6.28621072,8.28361898 7.49693363,9.78919468 7.49693363,11.6418095 C7.49693363,13.4944243 6.29142935,15 4.80150954,15 Z M4.80150954,9.2595034 C3.84389034,9.2595034 3.06370466,10.3345419 3.06370466,11.6548561 C3.06370466,12.9751703 3.84649965,14.0475994 4.80150954,14.0475994 C5.75651943,14.0475994 6.52887715,12.9595144 6.52887715,11.6418095 C6.52887715,10.3241046 5.75912875,9.24645682 4.80150954,9.24645682 L4.80150954,9.2595034 Z M5.79304986,5.31778731 L6.69587342,5.31778731 L6.69587342,6.22061085 L5.79304986,6.22061085 L5.79304986,5.31778731 Z M0.00558556396,13.1995715 L0.908409127,13.1995715 L0.908409127,14.1023951 L0.00558556396,14.1023951 L0.00558556396,13.1995715 Z" id="Combined-Shape"></path>
                        <g id="Path-2" transform="translate(0.115177, 1.672572)">
                            <polygon id="Path" points="5.81355747 1.89175456 1.10895957 1.89175456 2.44492969 0.555784434 1.88914524 2.33146835e-14 -1.55431223e-14 1.88653593 0.00260931478 1.89175456 -1.53233907e-14 2.67976818 0.00521864502 2.67976818 1.88914524 4.56108548 2.44492969 4.00530103 1.11678753 2.67976818 5.81355747 2.67976818"></polygon>
                        </g>
                    </g>
                </g>
            </g>
        </g>
    </g>
</svg>