<?xml version="1.0" encoding="UTF-8"?>
<svg width="24px" height="24px" viewBox="0 0 24 24" version="1.1" xmlns="http://www.w3.org/2000/svg" xmlns:xlink="http://www.w3.org/1999/xlink">
    <title>Icon/Info</title>
    <g id="Icon/Info" stroke="none" stroke-width="1" fill="none" fill-rule="evenodd">
        <path d="M12,2 C17.514,2 22,6.486 22,12 C22,17.515 17.514,22 12,22 C6.486,22 2,17.515 2,12 C2,6.486 6.486,2 12,2 Z M12,4 C7.589,4 4,7.589 4,12 C4,16.411 7.589,20 12,20 C16.411,20 20,16.411 20,12 C20,7.589 16.411,4 12,4 Z M12,15.75 C12.69,15.75 13.25,16.31 13.25,17 C13.25,17.69 12.69,18.25 12,18.25 C11.31,18.25 10.75,17.69 10.75,17 C10.75,16.31 11.31,15.75 12,15.75 Z M12,6 C14.206,6 16,7.794 16,10 C16,11.86 14.723,13.428 13,13.874 L13,15 L11,15 L11,12 L12,12 C13.103,12 14,11.103 14,10 C14,8.896 13.103,8 12,8 C10.897,8 10,8.896 10,10 L8,10 C8,7.794 9.794,6 12,6 Z" id="形状结合" fill="#98A6B3"></path>
    </g>
</svg>