<?xml version="1.0" encoding="UTF-8"?>
<svg width="24px" height="24px" viewBox="0 0 24 24" version="1.1" xmlns="http://www.w3.org/2000/svg" xmlns:xlink="http://www.w3.org/1999/xlink">
    <title>Icon/Link</title>
    <g id="Icon/Link" stroke="none" stroke-width="1" fill="none" fill-rule="evenodd">
        <path d="M9.535475,15.899475 C9.144975,16.289975 8.511775,16.289975 8.121275,15.899475 C7.730775,15.508975 7.730775,14.875775 8.121275,14.485275 L8.63900484,13.9672756 C7.97184454,13.7891694 7.23051412,13.9618359 6.707075,14.485275 L4.585775,16.606575 C3.804675,17.387575 3.804675,18.653975 4.585775,19.434975 C5.366775,20.216075 6.633175,20.216075 7.414175,19.434975 L11.984575,14.864575 C12.340675,16.198875 11.996475,17.681175 10.949675,18.727875 L8.828375,20.849175 C7.266275,22.411275 4.733675,22.411275 3.171575,20.849175 C1.609475,19.287075 1.609475,16.754475 3.171575,15.192375 L5.292875,13.071075 C6.61073506,11.7532149 8.61940924,11.5471628 10.1532318,12.4529185 L13.204,9.402 L13.968875,8.637675 L13.968,8.638 L14.485275,8.121275 C14.875775,7.730775 15.508975,7.730775 15.899475,8.121275 C16.289975,8.511775 16.289975,9.144975 15.899475,9.535475 L15.3824958,10.0536688 C16.0494895,10.2314548 16.7904935,10.0587235 17.313675,9.535475 L19.434975,7.414175 C20.216075,6.633075 20.216075,5.366775 19.434975,4.585775 C18.653975,3.804675 17.387675,3.804675 16.606575,4.585775 L14.485275,6.707075 L12.036175,9.156175 C11.680075,7.821875 12.024275,6.339575 13.071075,5.292875 L15.192375,3.171575 C16.754475,1.609475 19.287075,1.609475 20.849175,3.171575 C22.411275,4.733675 22.411275,7.266275 20.849175,8.828375 L18.727875,10.949675 C17.4100149,12.2675351 15.4014119,12.4735872 13.8675516,11.5678315 L9.535475,15.899475 Z" id="形状结合" fill="#98A6B3"></path>
    </g>
</svg>