<?xml version="1.0" encoding="UTF-8"?>
<svg width="24px" height="24px" viewBox="0 0 24 24" version="1.1" xmlns="http://www.w3.org/2000/svg" xmlns:xlink="http://www.w3.org/1999/xlink">
    <title>Icon/Loading</title>
    <g id="Icon/Loading" stroke="none" stroke-width="1" fill="none" fill-rule="evenodd">
        <g id="spinner-fading" transform="translate(2.000000, 2.000000)" fill="#00BDF2">
            <path d="M4,10 C4,11.104 3.105,12 2,12 C0.895,12 0,11.104 0,10 C0,8.896 0.895,8 2,8 C3.105,8 4,8.896 4,10 Z M5.757,2.929 C4.976,2.148 3.709,2.148 2.928,2.929 C2.147,3.71 2.147,4.976 2.928,5.757 C3.709,6.538 4.975,6.538 5.756,5.757 C6.538,4.977 6.539,3.71 5.757,2.929 Z M18,8 C16.895,8 16,8.896 16,10 C16,11.104 16.895,12 18,12 C19.105,12 20,11.104 20,10 C20,8.896 19.105,8 18,8 Z M17.777,14.536 C16.996,13.754 15.73,13.755 14.949,14.536 C14.169,15.316 14.168,16.582 14.949,17.364 C15.73,18.144 16.997,18.144 17.777,17.364 C18.559,16.583 18.561,15.316 17.777,14.536 Z M17.07,2.929 C16.29,2.148 15.023,2.149 14.242,2.929 C13.462,3.71 13.461,4.976 14.242,5.757 C15.023,6.539 16.29,6.538 17.07,5.757 C17.852,4.977 17.854,3.71 17.07,2.929 Z M10,16 C8.895,16 8,16.896 8,18 C8,19.104 8.895,20 10,20 C11.105,20 12,19.104 12,18 C12,16.896 11.105,16 10,16 Z M5.757,14.243 C4.976,13.462 3.709,13.462 2.929,14.243 C2.148,15.023 2.148,16.29 2.929,17.07 C3.711,17.851 4.976,17.851 5.757,17.07 C6.538,16.29 6.539,15.023 5.757,14.243 Z M12,2 C12,3.104 11.105,4 10,4 C8.895,4 8,3.104 8,2 C8,0.896 8.895,0 10,0 C11.105,0 12,0.896 12,2 Z M11,2 C11,1.448 10.553,1 10,1 C9.447,1 9,1.448 9,2 C9,2.552 9.447,3 10,3 C10.553,3 11,2.552 11,2 Z" id="形状"></path>
        </g>
    </g>
</svg>