<?xml version="1.0" encoding="UTF-8"?>
<svg width="24px" height="24px" viewBox="0 0 24 24" version="1.1" xmlns="http://www.w3.org/2000/svg" xmlns:xlink="http://www.w3.org/1999/xlink">
    <title>Icon/More</title>
    <g id="Icon/More" stroke="none" stroke-width="1" fill="none" fill-rule="evenodd">
        <path d="M5,10 C6.104,10 7,10.895 7,12 C7,13.106 6.104,14 5,14 C3.895,14 3,13.106 3,12 C3,10.895 3.895,10 5,10 Z M12,10 C13.104,10 14,10.895 14,12 C14,13.106 13.104,14 12,14 C10.895,14 10,13.106 10,12 C10,10.895 10.895,10 12,10 Z M19,10 C20.104,10 21,10.895 21,12 C21,13.106 20.104,14 19,14 C17.895,14 17,13.106 17,12 C17,10.895 17.895,10 19,10 Z" id="形状结合" fill="#00BDF2"></path>
    </g>
</svg>