<?xml version="1.0" encoding="UTF-8"?>
<svg width="24px" height="24px" viewBox="0 0 24 24" version="1.1" xmlns="http://www.w3.org/2000/svg" xmlns:xlink="http://www.w3.org/1999/xlink">
    <title>Icon/More-Vertical</title>
    <g id="Icon/More-Vertical" stroke="none" stroke-width="1" fill="none" fill-rule="evenodd">
        <path d="M12,17 C13.104,17 14,17.895 14,19 C14,20.106 13.104,21 12,21 C10.895,21 10,20.106 10,19 C10,17.895 10.895,17 12,17 Z M12,10 C13.104,10 14,10.895 14,12 C14,13.106 13.104,14 12,14 C10.895,14 10,13.106 10,12 C10,10.895 10.895,10 12,10 Z M12,3 C13.104,3 14,3.895 14,5 C14,6.106 13.104,7 12,7 C10.895,7 10,6.106 10,5 C10,3.895 10.895,3 12,3 Z" id="形状结合" fill="#98A6B3"></path>
    </g>
</svg>