<?xml version="1.0" encoding="UTF-8"?>
<svg width="24px" height="24px" viewBox="0 0 24 24" version="1.1" xmlns="http://www.w3.org/2000/svg" xmlns:xlink="http://www.w3.org/1999/xlink">
    <title>Icon/Notification</title>
    <g id="Icon/Notification" stroke="none" stroke-width="1" fill="none" fill-rule="evenodd">
        <path d="M15.446,19 C14.752,20.19 13.477,21 12,21 C10.524,21 9.248,20.19 8.555,19 L8.555,19 Z M12,3 C15.309,3 18,5.691 18,9 L18,11.838 C18,13.298 18.932,14.589 20.317,15.052 L21,15.279 L21,18 L3,18 L3,15.279 L3.684,15.052 C5.069,14.589 6,13.298 6,11.838 L6,9 C6,5.691 8.692,3 12,3 Z M12,5 C9.795,5 8,6.794 8,9 L8,11.838 C8,13.486 7.255,14.998 6.035,16 L17.966,16 C16.745,14.998 16,13.486 16,11.838 L16,9 C16,6.794 14.206,5 12,5 Z" id="形状结合" fill="#FFFFFF"></path>
    </g>
</svg>