<?xml version="1.0" encoding="UTF-8"?>
<svg width="24px" height="24px" viewBox="0 0 24 24" version="1.1" xmlns="http://www.w3.org/2000/svg" xmlns:xlink="http://www.w3.org/1999/xlink">
    <title>Icon/Pen</title>
    <g id="Icon/Pen" stroke="none" stroke-width="1" fill="none" fill-rule="evenodd">
        <path d="M10.1318,16.7329 L7.2688,13.8689 L15.1238,6.0129 L17.9868,8.8769 L10.1318,16.7329 Z M7.1518,19.3969 L4.1788,19.8199 L4.6038,16.8489 L6.9508,16.3799 L7.6198,17.0489 L7.1518,19.3969 Z M16.5378,4.5989 L16.5438,4.5929 C17.3088,3.8289 18.6428,3.8279 19.4078,4.5929 C20.1718,5.3569 20.1718,6.6919 19.4078,7.4569 L19.4018,7.4619 L16.5378,4.5989 Z M20.8218,3.1789 C20.0618,2.4189 19.0508,1.9999 17.9758,1.9999 C16.9008,1.9999 15.8898,2.4179 15.1298,3.1789 L5.1468,13.1609 C4.7558,13.5519 4.7558,14.1859 5.1468,14.5749 L5.2508,14.6799 L3.5178,15.0259 C3.1018,15.1099 2.7838,15.4459 2.7238,15.8669 L2.0118,20.8579 C1.9668,21.1689 2.0718,21.4829 2.2938,21.7049 C2.5168,21.9279 2.8308,22.0339 3.1428,21.9879 L8.1328,21.2749 C8.5538,21.2159 8.8898,20.8979 8.9728,20.4819 L9.3208,18.7489 L9.4248,18.8529 C9.8158,19.2439 10.4478,19.2439 10.8388,18.8529 L20.8208,8.8699 C21.5808,8.1099 21.9998,7.0999 21.9998,6.0249 C21.9998,4.9489 21.5808,3.9379 20.8208,3.1779 L20.8218,3.1789 Z" id="Fill-2154" fill="#00BDF2"></path>
    </g>
</svg>