<?xml version="1.0" encoding="UTF-8"?>
<svg width="24px" height="24px" viewBox="0 0 24 24" version="1.1" xmlns="http://www.w3.org/2000/svg" xmlns:xlink="http://www.w3.org/1999/xlink">
    <title>Icon/Research</title>
    <g id="Icon/Research" stroke="none" stroke-width="1" fill="none" fill-rule="evenodd">
        <path d="M22,17.999 C22,20.2 20.2,22 17.999,22 L6,22 C3.8,22 2,20.2 2,17.999 L2,6 C2,3.8 3.8,2 6,2 L17.999,2 C20.2,2 22,3.8 22,6 L22,17.999 Z M17.862,18.279 L14.747,13.728 C16.37,13.124 17.48,11.832 17.48,9.778 L17.48,9.738 C17.48,7.118 15.676,5.533 12.672,5.533 L6.845,5.533 L6.845,18.279 L9.649,18.279 L9.649,14.2 L11.851,14.2 L14.584,18.276 L17.861,18.276 L17.861,18.279 L17.862,18.279 Z M14.637,9.92 C14.637,10.996 13.856,11.724 12.491,11.724 L9.649,11.724 L9.649,8.064 L12.437,8.064 C13.799,8.064 14.636,8.683 14.636,9.885 L14.636,9.92 L14.637,9.92 Z" id="形状" fill="#0066B3"></path>
    </g>
</svg>