<?xml version="1.0" encoding="UTF-8"?>
<svg width="24px" height="24px" viewBox="0 0 24 24" version="1.1" xmlns="http://www.w3.org/2000/svg" xmlns:xlink="http://www.w3.org/1999/xlink">
    <title>Icon/Search</title>
    <g id="Icon/Search" stroke="none" stroke-width="1" fill="none" fill-rule="evenodd">
        <path d="M21.7,20.3 L16.3,14.9 C17.4,13.5 18,11.8 18,10 C18,7.9 17.2,5.9 15.7,4.3 C14.1,2.8 12.1,2 10,2 C7.9,2 5.9,2.8 4.3,4.3 C2.8,5.9 2,7.9 2,10 C2,12.1 2.8,14.1 4.3,15.7 C5.9,17.2 7.9,18 10,18 C11.8,18 13.5,17.4 14.9,16.3 L20.3,21.7 L21.7,20.3 Z M10,16 C8.4,16 6.9,15.4 5.8,14.2 C4.6,13.1 4,11.6 4,10 C4,8.4 4.6,6.9 5.8,5.8 C6.9,4.6 8.4,4 10,4 C11.6,4 13.1,4.6 14.2,5.8 C15.4,6.9 16,8.4 16,10 C16,11.6 15.4,13.1 14.2,14.2 C13.1,15.4 11.6,16 10,16 Z" id="形状" fill="#FFFFFF"></path>
    </g>
</svg>