<?xml version="1.0" encoding="UTF-8"?>
<svg width="24px" height="24px" viewBox="0 0 24 24" version="1.1" xmlns="http://www.w3.org/2000/svg" xmlns:xlink="http://www.w3.org/1999/xlink">
    <title>Icon/Setting</title>
    <g id="Icon/Setting" stroke="none" stroke-width="1" fill="none" fill-rule="evenodd">
        <g id="Group" transform="translate(2.000000, 2.000000)" fill="#00BDF2" fill-rule="nonzero">
            <path d="M9.95513672,13.6826367 C7.84134766,13.6826367 6.22451172,12.0658008 6.22451172,9.95099609 C6.22451172,7.83720703 7.84134766,6.22037109 9.95513672,6.22037109 C12.0699219,6.22037109 13.6867578,7.83720703 13.6867578,9.95099609 C13.6867578,12.0658008 12.0699219,13.6826367 9.95511719,13.6826367 L9.95513672,13.6826367 Z M9.95513672,7.46326172 C8.58317891,7.46763864 7.47221917,8.5790172 7.46835937,9.95097656 C7.47219768,11.3229436 8.58315181,12.4343427 9.95511719,12.4387305 C11.3274639,12.4348787 12.4390106,11.3233234 12.4428516,9.95097656 C12.4384425,8.57904164 11.3270733,7.46811744 9.95513672,7.46425781 L9.95513672,7.46326172 Z" id="Shape"></path>
            <path d="M12.4428711,19.9 L7.46837891,19.9 C7.09541016,19.9 6.84644531,19.6520313 6.84644531,19.2790625 L6.84644531,16.9153125 C6.34849609,16.6673242 5.85152344,16.4183594 5.47857422,16.169375 L3.48876953,17.4132813 C3.17856474,17.5762202 2.79507132,17.4665818 2.61787109,17.1642969 L0.130117187,12.8117188 C-0.117871094,12.43875 0.0061328125,12.0658008 0.380078125,11.9417969 L2.36988281,10.6979297 L2.36988281,9.20507812 L0.379101562,7.96121094 C0.0051171875,7.83720703 -0.118867188,7.46425781 0.129121094,7.09128906 L2.61685547,2.73773438 C2.74085937,2.48974609 3.11480469,2.36476562 3.48677734,2.61373047 L5.4765625,3.85761719 C5.85052734,3.60863281 6.34746094,3.23568359 6.84542969,3.11068359 L6.84542969,0.623945312 C6.84542969,0.250976562 7.09439453,0.0019921875 7.46736328,0.0019921875 L12.4418555,0.0019921875 C12.8148242,0.0019921875 13.0638086,0.250976562 13.0638086,0.623945312 L13.0638086,2.98669922 C13.5607422,3.23568359 14.0586914,3.48464844 14.4316602,3.73261719 L16.4214648,2.48974609 C16.7311798,2.32726789 17.1138993,2.43636958 17.2913867,2.73773438 L19.7791211,7.09128906 C20.0281055,7.46425781 19.9041211,7.83720703 19.5301563,7.96121094 L17.5403711,9.20507812 L17.5403711,10.6979297 L19.5301758,11.9408008 C19.7801563,12.0658008 19.9041406,12.43875 19.7801563,12.8107227 L17.2923828,17.1642578 C17.1673828,17.4132422 16.7944336,17.5372266 16.4214648,17.4132422 L14.4316602,16.1693555 C14.0586914,16.4183398 13.5617383,16.7913086 13.0638086,16.915293 L13.0638086,19.279043 C13.0638086,19.6520117 12.8148242,19.9 12.4418555,19.9 L12.4428711,19.9 Z M8.09033203,18.6571289 L11.8209375,18.6571289 L11.8209375,16.5423438 C11.8209375,16.294375 11.9449219,16.0453906 12.1939062,15.9204102 C12.8139412,15.6637749 13.3988902,15.3294686 13.9347266,14.9255078 C14.1681127,14.8008966 14.448274,14.8008966 14.6816602,14.9255078 L16.5464648,16.0453906 L18.4122852,12.8117187 L16.5464648,11.6918359 C16.2984961,11.4438477 16.1735156,11.1948828 16.2984961,10.9458984 C16.2984961,10.5729492 16.4224805,10.3239648 16.4224805,9.95099609 C16.4224805,9.57802734 16.4224805,9.3290625 16.2984961,8.95611328 C16.3029242,8.72557052 16.3910599,8.50450942 16.5464648,8.33416016 L18.4122852,7.21427734 L16.5464648,3.98160156 L14.6816602,5.10148437 C14.448274,5.22609561 14.1681127,5.22609561 13.9347266,5.10148437 C13.3992543,4.69724823 12.8146418,4.36260826 12.1949023,4.10558594 C11.9449219,3.85761719 11.8209375,3.60863281 11.8209375,3.35966797 L11.8209375,1.24587891 L8.0903125,1.24587891 L8.0903125,3.35966797 C8.09499239,3.62147398 7.94978128,3.86297174 7.71634766,3.98160156 C7.0966597,4.23831216 6.51204947,4.5726161 5.97652344,4.97650391 C5.74314246,5.10110819 5.46299035,5.10110819 5.22960938,4.97650391 L3.36378906,3.98160156 L1.49898438,7.21527344 L3.36378906,8.33517578 C3.61277344,8.45916016 3.73675781,8.70712891 3.61277344,8.95611328 C3.61277344,9.3290625 3.48876953,9.57804687 3.48876953,9.95099609 C3.48876953,10.3239453 3.48876953,10.5729492 3.61277344,10.945918 C3.73675781,11.1948828 3.61277344,11.4438477 3.36378906,11.5678516 L1.49898438,12.6877344 L3.36378906,15.9204102 L5.22960938,14.8015234 C5.46272614,14.6772734 5.74241058,14.6772734 5.97552734,14.8015234 C6.51136374,15.2054842 7.09631273,15.5397905 7.71634766,15.7964258 C7.94978128,15.9150556 8.09499239,16.1565534 8.0903125,16.4183594 L8.0903125,18.6571289 L8.09033203,18.6571289 Z" id="Shape"></path>
        </g>
    </g>
</svg>