<?xml version="1.0" encoding="UTF-8"?>
<svg width="24px" height="24px" viewBox="0 0 24 24" version="1.1" xmlns="http://www.w3.org/2000/svg" xmlns:xlink="http://www.w3.org/1999/xlink">
    <title>Icon/Social Media</title>
    <g id="Icon/Social-Media" stroke="none" stroke-width="1" fill="none" fill-rule="evenodd">
        <path d="M22,18 C22,20.2 20.2,22 18,22 L6,22 C3.8,22 2,20.2 2,18 L2,6 C2,3.8 3.8,2 6,2 L18,2 C20.2,2 22,3.8 22,6 L22,18 Z M17.014,14.442 L17.014,14.404 C17.014,12.139 15.529,11.192 12.891,10.505 C10.645,9.929 10.087,9.65 10.087,8.796 L10.087,8.759 C10.087,8.128 10.663,7.626 11.758,7.626 C12.853,7.626 13.986,8.109 15.138,8.907 L16.623,6.754 C15.305,5.695 13.688,5.101 11.795,5.101 C9.139,5.101 7.245,6.662 7.245,9.019 L7.245,9.056 C7.245,11.638 8.935,12.363 11.553,13.031 C13.725,13.588 14.172,13.96 14.172,14.683 L14.172,14.72 C14.172,15.482 13.466,15.947 12.297,15.947 C10.811,15.947 9.586,15.334 8.416,14.368 L6.726,16.392 C8.286,17.785 10.273,18.472 12.241,18.472 C15.045,18.472 17.014,17.022 17.014,14.442 Z" id="形状" fill="#98A6B3"></path>
    </g>
</svg>