<?xml version="1.0" encoding="UTF-8"?>
<svg width="24px" height="24px" viewBox="0 0 24 24" version="1.1" xmlns="http://www.w3.org/2000/svg" xmlns:xlink="http://www.w3.org/1999/xlink">
    <title>Icon/Table</title>
    <g id="Icon/Table" stroke="none" stroke-width="1" fill="none" fill-rule="evenodd">
        <path d="M16,15 L20,15 L20,19 L16,19 L16,15 Z M4,15 L8,15 L8,19 L4,19 L4,15 Z M16,9 L20,9 L20,13 L16,13 L16,9 Z M8,13 L4,13 L4,9 L8,9 L8,13 Z M14,19 L10,19 L10,15 L14,15 L14,19 Z M10,9 L14,9 L14,13 L10,13 L10,9 Z M20,7 L4,7 L4,4 L20,4 L20,7 Z M21,2 L3,2 C2.448,2 2,2.448 2,3 L2,20 C2,20.552 2.448,21 3,21 L21,21 C21.553,21 22,20.552 22,20 L22,3 C22,2.448 21.553,2 21,2 L21,2 Z" id="Fill-2055" fill="#FFFFFF"></path>
    </g>
</svg>