<?xml version="1.0" encoding="UTF-8"?>
<svg width="24px" height="24px" viewBox="0 0 24 24" version="1.1" xmlns="http://www.w3.org/2000/svg" xmlns:xlink="http://www.w3.org/1999/xlink">
    <title>Icon/Tree</title>
    <g id="Icon/Tree" stroke="none" stroke-width="1" fill="none" fill-rule="evenodd">
        <path d="M13,15 L15.586,15 L18,17.414 L18,22 L13,22 L13,15 Z M13,2 L15.586,2 L18,4.414 L18,9 L13,9 L13,2 Z M12,11 L19,11 C19.552,11 20,10.552 20,10 L20,4 C20,3.735 19.895,3.481 19.707,3.293 L16.707,0.293 C16.52,0.106 16.265,0 16,0 L12,0 C11.448,0 11,0.448 11,1 L11,4 L6,4 L6,0 L4,0 L4,18 C4,18.552 4.448,19 5,19 L11,19 L11,23 C11,23.552 11.448,24 12,24 L19,24 C19.552,24 20,23.552 20,23 L20,17 C20,16.735 19.895,16.481 19.707,16.293 L16.707,13.293 C16.52,13.106 16.265,13 16,13 L12,13 C11.448,13 11,13.448 11,14 L11,17 L6,17 L6,6 L11,6 L11,10 C11,10.552 11.448,11 12,11 L12,11 Z" id="Fill-1074" fill="#00BDF2"></path>
    </g>
</svg>