<?xml version="1.0" encoding="UTF-8"?>
<svg width="16px" height="13px" viewBox="0 0 16 13" version="1.1" xmlns="http://www.w3.org/2000/svg" xmlns:xlink="http://www.w3.org/1999/xlink">
    <title>Icon/Ungroup</title>
    <g id="corev2" stroke="none" stroke-width="1" fill="none" fill-rule="evenodd">
        <g id="Flow-Pricer-General" transform="translate(-356.000000, -96.000000)" fill="#00BDF2" fill-rule="nonzero">
            <g id="sub-header" transform="translate(13.000000, 88.000000)">
                <g id="Icon/Ungroup" transform="translate(341.000000, 4.000000)">
                    <path d="M8.97799948,4.16773246 C9.2295258,4.16773246 9.43309159,4.37023246 9.43309159,4.62104825 L9.43842081,15.7503772 C9.4385148,15.8710424 9.39064679,15.9867978 9.30535687,16.0721544 C9.22006695,16.1575109 9.10434898,16.2054693 8.98368369,16.2054693 L8.91433333,16.1976667 L3.39928121,16.200141 C3.2369463,16.2002038 3.0869088,16.1136578 3.00568639,15.9731034 C2.92446398,15.832549 2.92439626,15.6593397 3.00550876,15.5187218 C3.08662125,15.3781039 3.23659104,15.2914406 3.39892595,15.2913772 L8.52833333,15.2886667 L8.52333333,5.08266667 L3.33113159,5.08537839 C3.08018358,5.0854753 2.87667049,4.88212126 2.87657228,4.63117325 C2.87647428,4.38022523 3.07982831,4.17671214 3.33077633,4.17661404 L8.89646439,4.17504532 C8.92292053,4.17024123 8.95017053,4.16773246 8.97799948,4.16773246 Z M10.8587626,4.16666667 L10.940313,4.17415382 L10.940313,4.17415382 L16.6007504,4.17199561 C16.8519215,4.17199561 17.0544215,4.37520614 17.0547767,4.62602193 C17.0547767,4.87719298 16.8522767,5.08040351 16.6011057,5.08040351 L11.3123333,5.08166667 L11.3173333,15.2886667 L16.5500048,15.2874693 C16.8011759,15.2874693 17.003703,15.4892588 17.003703,15.7411404 C17.0040541,15.861548 16.9564384,15.9771434 16.8713636,16.0623515 C16.7862889,16.1475596 16.6707682,16.1953563 16.5503601,16.1951667 L10.9459403,16.1973296 C10.9195064,16.2021677 10.8922709,16.2047153 10.8644468,16.2047589 C10.6134637,16.2049565 10.409623,16.0020691 10.4086442,15.7510877 L10.4033153,4.62140351 C10.4033153,4.37058772 10.6072363,4.16702193 10.8587626,4.16666667 Z M4.57238106,8.27919298 C4.75149984,8.11244624 5.03045895,8.11735688 5.20359794,8.29030456 C5.37673694,8.46325224 5.38195598,8.74220575 5.21540738,8.92150877 L5.21540738,8.92150877 L4.34533333,9.79066667 L7.23898632,9.78977193 C7.49015738,9.78977193 7.69265738,9.99298246 7.69301264,10.2441535 C7.69301264,10.4949693 7.4908679,10.6981798 7.23934159,10.6985351 L4.41833333,10.6996667 L5.21931527,11.500364 C5.30506203,11.5850696 5.35335205,11.7005623 5.35341893,11.8210925 C5.35348553,11.9416227 5.30532343,12.0571689 5.21967053,12.1419693 C5.13502603,12.2276949 5.01959197,12.2759764 4.89911971,12.2760433 C4.77864746,12.2761099 4.66315998,12.2279563 4.57842053,12.1423246 L2.97014422,10.5372456 L2.92480544,10.4801231 C2.78994591,10.3020177 2.80405499,10.0482604 2.96659159,9.88604825 L2.96659159,9.88604825 Z M14.9391376,8.09674773 C15.0595501,8.09674773 15.175023,8.1446175 15.2601179,8.2298114 L16.868039,9.83524561 C16.9141284,9.88144685 16.9482211,9.9350892 16.9703169,9.9922989 C17.0384005,10.1565784 17.0053774,10.3525695 16.8715916,10.4860877 L16.8715916,10.4860877 L15.2658021,12.0932982 C15.0888811,12.2705746 14.8011179,12.2705746 14.6234863,12.0922325 C14.5383756,12.0072597 14.4905198,11.8919482 14.4904531,11.7716811 C14.4903866,11.6514139 14.5381146,11.5360495 14.6231311,11.4509825 L14.6231311,11.4509825 L15.4913333,10.5806667 L12.5999074,10.5823665 C12.4794053,10.5826479 12.3637569,10.5349043 12.2785489,10.4496962 C12.1933408,10.3644882 12.1455972,10.2488398 12.1458786,10.1283377 C12.1458786,9.87752193 12.3473153,9.67395614 12.5991968,9.67395614 L15.4183333,9.67166667 L14.6185126,8.87283772 C14.5331197,8.78765423 14.4850993,8.67201402 14.4850325,8.55139821 C14.484966,8.4307824 14.5328586,8.31508919 14.6181574,8.2298114 C14.7032523,8.1446175 14.8187252,8.09674773 14.9391376,8.09674773 Z" id="Combined-Shape"></path>
                </g>
            </g>
        </g>
    </g>
</svg>