<?xml version="1.0" encoding="UTF-8"?>
<svg width="24px" height="24px" viewBox="0 0 24 24" version="1.1" xmlns="http://www.w3.org/2000/svg" xmlns:xlink="http://www.w3.org/1999/xlink">
    <!-- Generator: Sketch 63.1 (92452) - https://sketch.com -->
    <title>Icon/Ungroup</title>
    <desc>Created with Sketch.</desc>
    <g id="Icon/Ungroup" stroke="none" stroke-width="1" fill="none" fill-rule="evenodd">
        <path d="M10.6414076,4.00142105 C10.9951359,4.00142105 11.2814161,4.27142111 11.2814161,4.60584223 L11.2889107,19.4449506 C11.2890429,19.6058376 11.2217248,19.7601782 11.1017792,19.8739869 C10.9818337,19.9877957 10.8190963,20.0517402 10.6494015,20.0517402 C10.6112936,20.0517402 10.5735369,20.0485129 10.5365378,20.0422181 L2.79590376,20.0446358 C2.56760775,20.0447196 2.35660592,19.9293249 2.24238062,19.7419189 C2.12815532,19.554513 2.12806009,19.3235672 2.24213081,19.1360767 C2.35620153,18.9485861 2.56710813,18.8330351 2.79540414,18.8329505 L10.01,18.83 L10.002,5.222 L2.70006309,5.22494921 C2.34714804,5.22507843 2.06094203,4.95393966 2.06080391,4.61934224 C2.0606661,4.28474481 2.34664843,4.01339396 2.69956348,4.01326316 L10.5328407,4.01015074 C10.5681316,4.00441112 10.6044057,4.00142105 10.6414076,4.00142105 Z M13.2863762,4 C13.3233971,4.00008225 13.3596777,4.00314585 13.3949652,4.00895083 L21.3614904,4.00710526 C21.7147191,4.00710526 21.9995004,4.27805269 22,4.61247381 C22,4.94736862 21.7152187,5.21831604 21.36199,5.21831604 L13.924,5.221 L13.931,18.83 L21.2901255,18.82774 C21.6433542,18.82774 21.9281737,19.0967926 21.9281737,19.4326348 C21.9286674,19.5931784 21.8617041,19.7473056 21.7420612,19.8609164 C21.6224182,19.9745273 21.4599583,20.0382562 21.2906251,20.0380034 L13.4069477,20.0412361 C13.3704088,20.0474605 13.3327884,20.050736 13.29437,20.050793 C12.9414055,20.0510564 12.6547389,19.7805399 12.6533624,19.445898 L12.6458681,4.60631592 C12.6458681,4.27189479 12.9326479,4.00047368 13.2863762,4 Z M4.44566611,9.48336957 C4.69756574,9.26104054 5.08987355,9.26758805 5.33336365,9.49818501 C5.57685375,9.72878197 5.58419343,10.1007201 5.34997158,10.3397908 L5.34997158,10.3397908 L4.127,11.499 L8.19578591,11.4974753 C8.54901462,11.4974753 8.8337959,11.7684227 8.83429551,12.1033175 C8.83429551,12.4377386 8.55001385,12.708686 8.19628552,12.7091597 L4.228,12.711 L5.35546736,13.7782652 C5.47605536,13.8912059 5.54396694,14.0451963 5.54406099,14.2059033 C5.54415465,14.3666102 5.47642298,14.5206718 5.35596697,14.6337391 C5.23692909,14.7480399 5.07459103,14.8124153 4.9051676,14.8125045 C4.73574418,14.8125933 4.57333098,14.7483884 4.45415959,14.6342128 L2.19239669,12.494107 L2.13888724,12.4304386 C1.93834275,12.192467 1.95478119,11.845949 2.18740053,11.6258437 L2.18740053,11.6258437 Z M19.024719,9.24010919 C19.1940582,9.24010919 19.3564509,9.30393556 19.4761223,9.41752745 L21.7373856,11.5581068 C21.7900506,11.6081595 21.8315773,11.6647621 21.8619656,11.7251442 C21.982319,11.9528647 21.9425329,12.2365135 21.7423817,12.4258965 L21.7423817,12.4258965 L19.4841161,14.5688443 C19.2353072,14.8052128 18.830618,14.8052128 18.5808099,14.5674233 C18.4611164,14.4541262 18.3938155,14.3003776 18.3937216,14.1400213 C18.3936281,13.979665 18.4607493,13.8258458 18.5803103,13.7124231 L18.5803103,13.7124231 L19.802,12.552 L15.7349956,12.5542683 C15.5655302,12.5546434 15.4028908,12.4909853 15.2830603,12.3773745 C15.1632299,12.2637637 15.0960868,12.1095659 15.0964824,11.9488964 C15.0964824,11.6144753 15.3797684,11.3430542 15.7339963,11.3430542 L19.699,11.341 L18.5738153,10.2748961 C18.4537249,10.161318 18.3861925,10.0071311 18.3860986,9.84630995 C18.3860051,9.68548884 18.4533577,9.53123119 18.5733157,9.41752745 C18.692987,9.30393556 18.8553797,9.24010919 19.024719,9.24010919 Z" id="Combined-Shape" fill="#00BDF2" fill-rule="nonzero"></path>
    </g>
</svg>