<?xml version="1.0" encoding="UTF-8"?>
<svg width="24px" height="24px" viewBox="0 0 24 24" version="1.1" xmlns="http://www.w3.org/2000/svg" xmlns:xlink="http://www.w3.org/1999/xlink">
    <title>Icon/Ungroup</title>
    <g id="Icon/Ungroup" stroke="none" stroke-width="1" fill="none" fill-rule="evenodd">
        <path d="M10.7735994,5.00127895 C11.075431,5.00127895 11.3197099,5.24427895 11.3197099,5.54525789 L11.326105,18.9004526 C11.3262178,19.0452509 11.2687761,19.1841574 11.1664282,19.2865853 C11.0640803,19.3890131 10.9252188,19.4465632 10.7804204,19.4465632 C10.7486943,19.4465632 10.7172533,19.4437982 10.6864198,19.4384017 L4.07913745,19.4401692 C3.88433556,19.4402446 3.70429057,19.3363894 3.60682367,19.1677241 C3.50935677,18.9990588 3.50927552,18.7912076 3.60661051,18.6224662 C3.70394551,18.4537247 3.88390925,18.3497288 4.07871114,18.3496526 L10.235,18.347 L10.228,6.099 L3.99735791,6.10245406 C3.69622029,6.10257036 3.45200458,5.85854551 3.45188673,5.55740789 C3.45176914,5.25627027 3.69579398,5.01205457 3.9969316,5.01193684 L10.681209,5.00909314 C10.7112441,5.00395524 10.7421129,5.00127895 10.7735994,5.00127895 Z M13.0305152,5 C13.0620178,5.00007383 13.0928922,5.00281613 13.1229245,5.00801274 L19.9209005,5.00639474 C20.2223058,5.00639474 20.4653058,5.25024737 20.4657321,5.55122632 C20.4657321,5.85263158 20.2227321,6.09648421 19.9213268,6.09648421 L13.574,6.099 L13.58,18.347 L19.8600058,18.3449632 C20.1614111,18.3449632 20.4044437,18.5871105 20.4044437,18.8893684 C20.4048649,19.0338576 20.3477261,19.1725721 20.2456364,19.2748218 C20.1435466,19.3770715 20.0049218,19.4344275 19.8604321,19.4342 L13.1337684,19.4370427 C13.1024738,19.442688 13.0702481,19.4456591 13.0373362,19.4457107 C12.7361564,19.4459477 12.4915476,19.2024829 12.4903731,18.9013053 L12.4839783,5.54568421 C12.4839783,5.24470526 12.7286836,5.00042632 13.0305152,5 Z M5.48685727,9.93503158 C5.70179981,9.73493549 6.03655074,9.74082825 6.24431753,9.94836547 C6.45208433,10.1559027 6.45834718,10.4906469 6.25848885,10.7058105 L6.25848885,10.7058105 L5.215,11.749 L8.68678359,11.7477263 C8.98818885,11.7477263 9.23118885,11.9915789 9.23161517,12.2929842 C9.23161517,12.5939632 8.98904148,12.8378158 8.6872099,12.8382421 L5.301,12.839 L6.26317832,13.8004368 C6.36607443,13.9020835 6.42402246,14.0406748 6.42410271,14.185311 C6.42418263,14.3299472 6.36638812,14.4686026 6.26360464,14.5703632 C6.16203123,14.6732339 6.02351036,14.7311717 5.87894366,14.731252 C5.73437695,14.7313319 5.59579197,14.6735476 5.49410464,14.5707895 L3.56417306,12.6446947 C3.54195592,12.6204807 3.52232731,12.5947818 3.50527986,12.5679442 C3.348375,12.3550031 3.36724695,12.0555363 3.5599099,11.8632579 L3.5599099,11.8632579 Z M17.9269652,9.71609728 C18.0714601,9.71609728 18.2100276,9.773541 18.3121415,9.87577368 L20.2416467,11.8022947 C20.2904562,11.8512226 20.3280535,11.9071048 20.3544386,11.9667464 C20.4491587,12.1682628 20.4131092,12.4164404 20.2459099,12.5833053 L20.2459099,12.5833053 L18.3189625,14.5119579 C18.1066573,14.7246895 17.7613415,14.7246895 17.5481836,14.5106789 C17.4460508,14.4087116 17.3886238,14.2703379 17.3885437,14.1260173 C17.3884639,13.9816967 17.4457375,13.8432594 17.5477573,13.7411789 L17.5477573,13.7411789 L18.59,12.697 L15.1198889,12.6988398 C14.9752864,12.6991775 14.8365083,12.6418851 14.7342586,12.5396355 C14.632009,12.4373858 14.5747166,12.2986077 14.5750543,12.1540053 C14.5750543,11.8530263 14.8167783,11.6087474 15.1190362,11.6087474 L18.502,11.606 L17.5422152,10.6474053 C17.4397437,10.5451851 17.3821192,10.4064168 17.3820391,10.2616779 C17.3819593,10.1169389 17.4394304,9.97810703 17.5417889,9.87577368 C17.6439028,9.773541 17.7824703,9.71609728 17.9269652,9.71609728 Z" id="Combined-Shape" fill="#00BDF2" fill-rule="nonzero"></path>
    </g>
</svg>