<?xml version="1.0" encoding="UTF-8"?>
<svg width="24px" height="24px" viewBox="0 0 24 24" version="1.1" xmlns="http://www.w3.org/2000/svg" xmlns:xlink="http://www.w3.org/1999/xlink">
    <!-- Generator: Sketch 63.1 (92452) - https://sketch.com -->
    <title>Icon/Ungroup</title>
    <desc>Created with Sketch.</desc>
    <g id="Icon/Ungroup" stroke="none" stroke-width="1" fill="none" fill-rule="evenodd">
        <path d="M10.6902476,3.00159353 C11.0869092,3.00159353 11.4079363,3.30436451 11.4079363,3.67937557 L11.4163405,20.3195621 C11.4164888,20.4999766 11.341,20.67305 11.2064962,20.8006722 C11.0719925,20.9282943 10.8895031,21 10.6992117,21 C10.6566476,21 10.6144742,20.9964096 10.5731418,20.9894058 L1.89250558,20.9920333 C1.63650042,20.9921272 1.39988851,20.8627267 1.27179926,20.6525746 C1.14371001,20.4424225 1.14360322,20.183446 1.27151913,19.973199 C1.39943504,19.762952 1.63594017,19.6333761 1.89194532,19.6332812 L9.982,19.63 L9.974,4.37 L1.78503237,4.37362589 C1.3892827,4.37377078 1.06833879,4.06972289 1.06818391,3.69451412 C1.06802937,3.31930535 1.38872244,3.01501964 1.78447211,3.01487296 L10.5667183,3.01167533 C10.6068542,3.00504816 10.6481304,3.00159353 10.6902476,3.00159353 Z M13.6562459,3 C13.6962601,3.0000889 13.7355029,3.00328375 13.7737208,3.00934361 L22.711467,3.00796766 C23.1075684,3.00796766 23.4269146,3.31180099 23.4274749,3.68681205 C23.4274749,4.0623543 23.1081286,4.36618762 22.7120272,4.36618762 L14.371,4.369 L14.379,19.63 L22.6314402,19.6274383 C23.0275416,19.6274383 23.3469307,19.9291469 23.3469307,20.3057515 C23.3474843,20.4857808 23.2723935,20.658615 23.138229,20.7860152 C23.0040645,20.9134155 22.8218863,20.9848794 22.6320005,20.9845959 L13.7886779,20.9886881 C13.7485747,20.9953647 13.7073198,20.9988753 13.66521,20.9989379 C13.2694049,20.9992332 12.9479444,20.695883 12.9464008,20.3206244 L12.937997,3.67990675 C12.937997,3.30489568 13.2595842,3.00053118 13.6562459,3 Z M3.74250576,9.14890666 C4.0249794,8.89959272 4.46490307,8.90693493 4.73794647,9.1655203 C5.01098988,9.42410568 5.01922041,9.84118728 4.75657017,10.1092749 L4.75657017,10.1092749 L3.384,11.409 L7.94779163,11.4074719 C8.34389304,11.4074719 8.66323928,11.7113052 8.66379954,12.0868475 C8.66379954,12.4618585 8.34501355,12.7656919 7.94835189,12.766223 L3.498,12.768 L4.76273299,13.9650899 C4.89795721,14.0917386 4.97411147,14.2644194 4.97421694,14.4446319 C4.97432197,14.6248445 4.89836945,14.7976051 4.76329325,14.9243958 C4.62980729,15.0525697 4.44776565,15.1247586 4.25777867,15.1248586 C4.06779169,15.1249582 3.88566579,15.0529606 3.75203012,14.924927 L1.2157486,12.5250686 C1.188941,12.4973681 1.16500114,12.4681078 1.14392149,12.4376217 C0.931695117,12.1713041 0.954518962,11.7932962 1.21014603,11.5514209 L1.21014603,11.5514209 Z M20.0910728,8.87612086 C20.2809654,8.87612086 20.4630684,8.94769407 20.5972646,9.07507304 L23.1329859,11.4754626 C23.1888335,11.5285398 23.2335115,11.5881855 23.2670201,11.6517721 L23.2724764,11.6643577 C23.4075116,11.9191017 23.3626911,12.2365332 23.1385885,12.4485791 L23.1385885,12.4485791 L20.6062288,14.8516245 C20.327221,15.1166819 19.8734131,15.1166819 19.5932849,14.850031 C19.4590637,14.7229827 19.3835942,14.550573 19.3834889,14.3707537 C19.3833841,14.1909343 19.458652,14.0184455 19.5927246,13.8912562 L19.5927246,13.8912562 L20.963,12.59 L16.4020634,12.5925319 C16.2120294,12.5929525 16.0296498,12.5215679 15.8952751,12.3941678 C15.7609004,12.2667677 15.6856078,12.0938542 15.6860515,11.9136837 C15.6860515,11.5386726 16.003721,11.2343081 16.4009429,11.2343081 L20.847,11.232 L19.5854413,10.0365037 C19.450775,9.90914028 19.375046,9.73623904 19.3749407,9.55589847 C19.3748358,9.3755579 19.4503633,9.20257743 19.584881,9.07507304 C19.7190773,8.94769407 19.9011802,8.87612086 20.0910728,8.87612086 Z" id="Combined-Shape" fill="#00BDF2" fill-rule="nonzero"></path>
    </g>
</svg>